<svg enable-background="new 0 0 485.213 485.212" height="512" viewBox="0 0 485.213 485.212" width="512" xmlns="http://www.w3.org/2000/svg"><g fill="#c36e37"><path d="m363.909 333.584v-60.654h-49.13c-3.463-15.158-9.507-29.286-17.534-42.05l34.83-34.828-42.914-42.881-34.812 34.795c-12.778-8.025-26.906-14.066-42.066-17.529v-49.133h-60.654v49.133c-15.163 3.463-29.288 9.504-42.069 17.558l-34.828-34.824-42.881 42.881 34.829 34.828c-8.039 12.764-14.083 26.892-17.548 42.05h-49.131v60.654h49.13c3.465 15.163 9.493 29.29 17.534 42.055l-34.814 34.825 42.886 42.914 34.823-34.83c12.781 8.027 26.906 14.071 42.069 17.534v49.13h60.654v-49.13c15.161-3.463 29.271-9.507 42.053-17.534l34.825 34.83 42.914-42.914-34.83-34.825c8.027-12.797 14.071-26.892 17.534-42.055zm-181.953 45.49c-41.875 0-75.816-33.943-75.816-75.816 0-41.878 33.941-75.812 75.816-75.812s75.814 33.934 75.814 75.812c.001 41.872-33.938 75.816-75.814 75.816z"/><path d="m485.212 106.141v-30.325h-24.577c-1.718-7.584-4.737-14.631-8.77-21.027l17.417-17.416-21.445-21.44-17.412 17.413c-6.398-4.025-13.441-7.047-21.025-8.765v-24.581h-30.331v24.582c-7.575 1.717-14.627 4.739-21.025 8.767l-17.414-17.413-21.44 21.438 17.413 17.416c-4.028 6.396-7.053 13.443-8.765 21.027h-24.582v30.327h24.586c1.718 7.58 4.737 14.629 8.761 21.027l-17.413 17.411 21.44 21.442 17.413-17.415c6.398 4.03 13.45 7.052 21.034 8.77v24.577h30.322v-24.582c7.584-1.717 14.631-4.737 21.029-8.767l17.413 17.416 21.44-21.44-17.417-17.413c4.032-6.398 7.052-13.446 8.77-21.027h24.578zm-90.976 22.742c-20.937 0-37.906-16.967-37.906-37.906s16.97-37.906 37.906-37.906c20.94 0 37.905 16.967 37.905 37.906s-16.964 37.906-37.905 37.906z"/></g></svg>