<svg xmlns="http://www.w3.org/2000/svg"><path d="m38.247 9.237-5.653 2.62v15.871c0 .789-.64 1.428-1.429 1.428h-1.268c-.789 0-1.428-.639-1.428-1.428v-13.959l-3.531 1.636v12.323c0 .789-.64 1.428-1.429 1.428h-1.299c-.789 0-1.429-.639-1.429-1.428v-10.396l-2.468 1.144v9.252c0 .789-.64 1.428-1.429 1.428h-1.299c-.789 0-1.429-.639-1.429-1.428v-7.326l-3.531 1.637v5.689c0 .789-.64 1.428-1.429 1.428h-1.267c-.789 0-1.429-.639-1.429-1.428v-3.777l-1.056.489c-1.509.699-3.44.285-4.311-.929-.872-1.211-.355-2.761 1.155-3.46l4.212-1.952v-16.514c0-.789.64-1.429 1.429-1.429h1.267c.789 0 1.429.64 1.429 1.429v14.602l3.531-1.636v-12.966c0-.789.64-1.429 1.429-1.429h1.299c.789 0 1.429.64 1.429 1.429v11.039l2.468-1.144v-9.895c0-.789.64-1.429 1.429-1.429h1.299c.789 0 1.429.64 1.429 1.429v7.969l3.531-1.637v-6.332c0-.789.639-1.429 1.428-1.429h1.268c.789 0 1.429.64 1.429 1.429v4.421l2.497-1.158c1.51-.7 3.44-.285 4.312.928.871 1.212.354 2.761-1.156 3.461z" fill="#c06d3a" fill-rule="evenodd"/></svg>