<?xml version="1.0" encoding="utf-8"?>
<!-- Generator: Adobe Illustrator 21.1.0, SVG Export Plug-In . SVG Version: 6.00 Build 0)  -->
<svg version="1.1" id="Layer_1" xmlns="http://www.w3.org/2000/svg" xmlns:xlink="http://www.w3.org/1999/xlink" x="0px" y="0px"
	 viewBox="0 0 735 401.3" style="enable-background:new 0 0 735 401.3;" xml:space="preserve">
<style type="text/css">
	.st0{fill:#E85F67;}
	.st1{fill:#F58878;}
	.st2{fill:#F7C2B7;}
	.st3{fill:#966992;}
	.st4{opacity:0.42;fill:#966992;}
	.st5{opacity:0.6;fill:#966992;}
	.st6{fill:#184E67;}
</style>
<path class="st0" d="M388.2,242.6L388.2,242.6c-8,0-14.5-6.6-14.5-14.6l0.1-48.8c0-8,6.6-14.5,14.6-14.5h0c8,0,14.5,6.6,14.5,14.6
	l-0.1,48.8C402.7,236.1,396.2,242.6,388.2,242.6z"/>
<path class="st1" d="M388.2,243L388.2,243c-8,0-14.5-6.6-14.5-14.6l0-26.2l29.1,0l0,26.2C402.7,236.4,396.2,243,388.2,243z"/>
<g>
	<path class="st2" d="M388.4,164.9c-0.7,0-1.3,0-2,0.1c3.2,2.7,5.3,6.7,5.3,11.2l-0.1,48.8c0,7.3-5.5,13.4-12.6,14.4
		c2.5,2.1,5.7,3.3,9.2,3.4c8,0,14.6-6.5,14.6-14.5l0.1-48.8C402.9,171.5,396.4,164.9,388.4,164.9z"/>
</g>
<g>
	<circle class="st3" cx="367.5" cy="82.6" r="40.4"/>
	<g>
		<path class="st4" d="M395.9,53.7c5.4,6.9,8.6,15.5,8.6,24.9c0,22.3-18.1,40.4-40.4,40.4c-11.1,0-21.1-4.5-28.5-11.7
			c7.4,9.5,18.9,15.6,31.9,15.6c22.3,0,40.4-18.1,40.4-40.4C407.9,71.2,403.3,61,395.9,53.7z"/>
	</g>
	<g>
		<path class="st5" d="M382.2,45.2l-39.9,69.1c1.6,1.3,0.9,1.2,2.8,2.3c1.9,1.1,1.4,0.5,3.3,1.3l39.9-69.1c-1.6-1.3-0.9-1.2-2.8-2.3
			C383.7,45.4,384.2,45.9,382.2,45.2z"/>
	</g>
</g>
<g>
	<path class="st6" d="M50.4,44.9h8.9v77h-8.9V44.9z"/>
	<path class="st6" d="M126.6,104.8l27.7-60h11.3v77h-8.6V57.8L131,114.8h-8.8L96.2,57.8v64.1h-8.6v-77H99L126.6,104.8z"/>
	<path class="st6" d="M194.1,44.9h21.1c14,0,23,8.2,23,22.2c0,13.9-9.5,22.6-23,22.6H203v32.2h-8.9V44.9z M214.4,81.7
		c9.2,0,14.6-5.7,14.6-14.6c0-8.8-5.4-14.3-14.6-14.3H203v28.9H214.4z"/>
	<path class="st6" d="M260.9,44.9h19.6c15.7,0,24,7.9,24,21.3c0,9.1-4.5,17.5-13.4,20.4l19.1,35.3h-9.9l-17.4-33.4h-13.1v33.4h-8.9
		V44.9z M280.5,80.6c9,0,14.6-4.2,14.6-14.3c0-8.1-4.3-13.5-15.2-13.5h-10.1v27.8H280.5z"/>
	<path class="st6" d="M448.4,121.9l-29.3-77h9.8l24.2,66.4l24.3-66.4h9.8l-29.3,77H448.4z"/>
	<path class="st6" d="M507.9,44.9h8.9v77h-8.9V44.9z"/>
	<path class="st6" d="M545.1,44.9h8.9l42.5,62.9V44.9h8.8v77h-8.8L554,59.2v62.7h-8.9V44.9z"/>
	<path class="st6" d="M696.5,54.7l-5.7,5.9c-3.5-3.4-10.3-8.8-22.4-8.8c-17.7,0-29.8,13.6-29.8,31.7c0,18.6,12.5,31.6,29.7,31.6
		c12.9,0,20.1-5.6,22.6-8V90.9h-17.2v-7.8h25.7v27.8c-8.4,8.5-18.4,12.4-31.5,12.4c-21.9,0-38.7-16.4-38.7-39.8
		c0-22.6,16.4-40,38.9-40C683.4,43.5,692.6,50.6,696.5,54.7z"/>
	<path class="st6" d="M165.5,224.8l27.7-60h11.3v77H196v-64.1l-26.1,57.1h-8.8L135,177.8v64.1h-8.6v-77h11.4L165.5,224.8z"/>
	<path class="st6" d="M232.9,164.9h36.5v8.1h-27.6v25.6h24.1v8h-24.1v27.2h28.8v8h-37.7V164.9z"/>
	<path class="st6" d="M296.1,164.9h15.8c26.3,0,41.2,14.4,41.2,38.5c0,25.5-15.5,38.5-41.2,38.5h-15.8V164.9z M313.7,234
		c18.5,0,30.4-10.5,30.4-30.6c0-19.3-11.9-30.5-30.4-30.5H305V234H313.7z"/>
	<path class="st6" d="M484.9,234.5c-3,2.6-11.9,8.8-24.9,8.8c-22.6,0-39.1-17.2-39.1-39.9c0-22.7,17.1-39.9,38.8-39.9
		c11.6,0,19.8,4.7,23.9,8l-2.9,7.9c-3-2.4-10.6-7.6-20.8-7.6c-17.1,0-29.8,13.6-29.8,31.6c0,17.9,12.2,31.6,30,31.6
		c11.7,0,19.2-6,21.9-8.2L484.9,234.5z"/>
	<path class="st6" d="M519.5,216.9l-9.2,25h-9l28.8-77h9l28.8,77h-9l-9.2-25H519.5z M534.6,174.7l-12.3,34.5H547L534.6,174.7z"/>
	<path class="st6" d="M589,164.9h8.9v69h28.8v8H589V164.9z"/>
	<path class="st6" d="M58.5,336.9l-9.2,25h-9l28.8-77h9l28.8,77h-9l-9.2-25H58.5z M73.5,294.7l-12.3,34.5H86L73.5,294.7z"/>
	<path class="st6" d="M128,284.9h15.8c26.3,0,41.2,14.4,41.2,38.5c0,25.5-15.5,38.5-41.2,38.5H128V284.9z M145.6,354
		c18.5,0,30.4-10.5,30.4-30.6c0-19.2-11.9-30.5-30.4-30.5h-8.7v61H145.6z"/>
	<path class="st6" d="M209.1,284.9h8.9v33.8h40.9v-33.8h8.9v77h-8.9v-35.1H218v35.1h-8.9V284.9z"/>
	<path class="st6" d="M296.2,284.9h36.5v8.1h-27.6v25.6h24.1v8h-24.1v27.2h28.8v8h-37.7V284.9z"/>
	<path class="st6" d="M359.3,284.9h19.6c15.7,0,24,7.9,24,21.3c0,9.1-4.5,17.5-13.4,20.4l19.1,35.3h-9.9l-17.4-33.4h-13.1v33.4h-8.9
		V284.9z M378.9,320.6c9,0,14.6-4.2,14.6-14.3c0-8.1-4.3-13.5-15.2-13.5h-10.1v27.8H378.9z"/>
	<path class="st6" d="M430.5,284.9H467v8.1h-27.6v25.6h24.1v8h-24.1v27.2h28.8v8h-37.7V284.9z"/>
	<path class="st6" d="M493.5,284.9h8.9l42.5,62.9v-62.9h8.8v77h-8.8l-42.5-62.7v62.7h-8.9V284.9z"/>
	<path class="st6" d="M641.6,354.5c-3,2.6-11.9,8.8-24.9,8.8c-22.6,0-39.1-17.2-39.1-39.9c0-22.7,17.1-39.9,38.8-39.9
		c11.6,0,19.8,4.7,23.9,8l-2.9,7.9c-3-2.4-10.6-7.6-20.8-7.6c-17.1,0-29.8,13.6-29.8,31.6s12.2,31.6,30,31.6c11.7,0,19.2-6,21.9-8.2
		L641.6,354.5z"/>
	<path class="st6" d="M665.2,284.9h36.5v8.1h-27.6v25.6h24.1v8h-24.1v27.2H703v8h-37.7V284.9z"/>
</g>
</svg>
