<svg enable-background="new 0 0 319 336" viewBox="0 0 319 336" xmlns="http://www.w3.org/2000/svg"><path d="m130.9 136.1c-19.8-8.3-41.8-12.4-61.3-3.2-16 7.6-29.3 24.2-35.4 44.4-1.9 6.4-3.2 13-4.4 19.6-.9 4.8-1.8 9.8-1.6 14.7.2 4.5 1.4 8.8 2.8 12.9 10.3 29.6 33.8 49.2 58.4 57.9s50.6 8 76.1 7.3c15.5-.4 31.1-.8 46.1-5.3 31.2-9.2 57.7-34.9 79-65.6 2.2-3.2.2-7.6-3.5-8h-.1c-17.4-1.6-30.7-19.8-40.9-37.7s-20.2-37.8-36.3-46.4c-6.2-3.3-13.1-4.7-19.8-5-9.8-.4-19.7 1.4-29.1 5.4" fill="#194151"/><path d="m148.7 141.8c-13.1-8.9 42.2 107.6 44.5 118.8 4.3 20.6 22.5 19.6 31.1-8.9 7.4-24.5 8.7-35.5 4.8-71.3-1.8-16.5-12.8-29.3-23.2-38.1-4-3.4-8.7-5.2-13.5-6.2-6.9-1.4-14.2-.9-21.3 1.4" fill="#194151" opacity=".42"/><path d="m123.5 144.6c-14.3-8.3-30.2-12.4-44.3-3.2-11.6 7.6-21.2 24.2-25.6 44.4-1.4 6.4-2.3 13-3.2 19.6-.7 4.8-1.3 9.8-1.1 14.7.2 4.5 1 8.8 2 12.9 7.4 29.6 24.4 49.2 42.2 57.9" fill="#194151" opacity=".42"/><circle cx="71.5" cy="216.3" fill="#e8c488" r="14"/><path d="m109.5 223.9-49.8-12.7c-1.7-.4-2.7-2.2-2.3-3.9l13.4-52.7c3.4-13.3 17-21.4 30.3-18l7.7 2c13.3 3.4 21.4 17 18 30.3l-13.4 52.7c-.4 1.7-2.2 2.7-3.9 2.3z" fill="#adc4be"/><path d="m56.9 207.3c-.4 1.7.6 3.4 2.3 3.9l49.8 12.7c1.7.4 3.4-.6 3.9-2.3l.6-2.5c-.8.8-1.9 1.1-3 .8l-49.8-12.7c-1.7-.4-2.7-2.2-2.3-3.9" fill="#194151"/><circle cx="204.9" cy="216.3" fill="#e8c488" r="14"/><path d="m166.9 223.9 49.8-12.7c1.7-.4 2.7-2.2 2.3-3.9l-13.4-52.7c-3.4-13.3-17-21.4-30.3-18l-7.7 2c-13.3 3.4-21.4 17-18 30.3l13.4 52.7c.5 1.7 2.2 2.7 3.9 2.3z" fill="#adc4be"/><path d="m154.9 225.9 49.8-12.7c1.7-.4 2.7-2.2 2.3-3.9l-12.3-30.7s2-10.7-1.1-22-17-21.4-30.3-18l-7.7 2c-13.3 3.4-21.4 17-18 30.3l13.4 52.7c.5 1.7 2.2 2.7 3.9 2.3z" fill="#c0d5d0" opacity=".66"/><path d="m103 117.1h-3c-10 1.9-16.8-4.7-18.7-14.7l-6-15.8c-1.9-10.1 4.7-19.8 14.7-21.7 10-1.9 19.8 4.7 21.7 14.7l3 15.8c1.9 10-1.7 19.8-11.7 21.7z" fill="#c16c37"/><path d="m115 115.6-1.3.8c-8.7 5.3-20.2 2.6-25.5-6.1l-10.5-17.3c-5.3-8.7-2.6-20.2 6.1-25.5l1.3-.8c8.7-5.3 20.2-2.6 25.5 6.1l10.5 17.2c5.4 8.8 2.6 20.2-6.1 25.6z" fill="#c16c37" opacity=".55"/><path d="m119 225.9-49.8-12.7c-1.7-.4-2.7-2.2-2.3-3.9l12.3-30.7s-2-10.7 1.1-22 17-21.4 30.3-18l7.7 2c13.3 3.4 21.4 17 18 30.3l-13.4 52.7c-.4 1.7-2.2 2.7-3.9 2.3z" fill="#c0d5d0" opacity=".66"/><path d="m219.5 207.3c.4 1.7-.6 3.4-2.3 3.9l-49.8 12.7c-1.7.4-3.4-.6-3.9-2.3l-.6-2.5c.8.8 1.9 1.1 3 .8l49.8-12.7c1.7-.4 2.7-2.2 2.3-3.9" fill="#194151"/><path d="m214 302.2c0 2.4-1.7 4.4-3.9 4.4h-145.6c-2.1 0-3.9-2-3.9-4.4 0-14.6 2.6-60.2 2.6-60.4 2.1-21.8 7.2-39.6 18.5-54.1.9-1.1 1.8-2.2 2.7-3.3-2.3-4.7-3.6-10.2-3.6-15.9v-.3c0-18.2 13-33.1 28.8-33.1h52.2c15.8 0 28.8 14.9 28.8 33.1v.3c0 4.8-.9 9.3-2.5 13.4 1.6 1.6 3.1 3.4 4.5 5.2 11.8 14.7 18.2 33.5 19 55.6z" fill="#c0d5d0"/><path d="m213.7 302.5c0 2.4-1.7 4.4-3.9 4.4h-140.6c30.8-6.5 126.4-32.5 141.8-73.1z" fill="#c0d5d0" opacity=".5"/><path d="m141 182.8c15-6.1 39.7-39.8 39.7-39.8 9.6 10.1 10.2 21 10 26 0 0 .1 6-2.5 12.8 1.6 1.6-48.2 2.1-47.2 1z" fill="#c0d5d0" opacity=".49"/><path d="m197.7 278.3c0 1.9-1.3 3.4-3 3.4h-113.4c-1.7 0-3-1.5-3-3.4 0-11.4 2-46.9 2-47 1.7-17 5.6-30.8 14.4-42.1.7-.9 1.4-1.7 2.1-2.6-1.8-3.7 82-5.2 80.7-2 1.2 1.3 2.4 2.6 3.5 4 9.2 11.5 14.1 26.1 14.8 43.2z" fill="#f8f6e8"/><path d="m50.7 241.7v.8z" fill="#c0d5d0"/><path d="m152.3 129.3v19.5h-32.8v-19.5l-15.3 1v56.2h63.5v-56.2z" fill="#f8f6e8"/><path d="m131.3 134.7c13.2 0 14.4-.2 2 5.7-12.6 5.9-29.4.5-38.6-8.4-1.8-1.7 7.3-4.5 8.7-6.6 0 0 14 9.3 27.9 9.3z" fill="#194151"/><path d="m137.8 133.7c-13.2 0-14.4-.2-2 5.7 12.6 5.9 30.4 4.5 39.6-4.4 1.8-1.7-7.3-7.5-8.7-9.6 0 0-15 8.3-28.9 8.3z" fill="#194151"/><path d="m181.4 81c0 31.1-21.5 56.3-48 56.3s-48-24.1-48-56.3c0-31.1 21.5-56.3 48-56.3s48 25.2 48 56.3z" fill="#e8c488"/><path d="m152.8 68.1c-3.9.3-7.6 1.5-10.7 3.4-.3.2-.6-.2-.4-.5 3.9-3.6 9-6 14.7-6.4 13.3-1 24.9 8.9 25.9 22.2.6 7.3-.2 14.2-5 19-.3.3-.6-.1-.5-.4 2.8-4.3 2.3-9.7 1.9-15.2-1-13.2-12.6-23.1-25.9-22.1z" fill="#c16c37"/><path d="m143.2 35.2c0-3-.2-5.9-.6-8.7-3.1-.7-6.3-1.1-9.5-1.1-26.5 0-48 25.2-48 56.3 0 3 .2 5.9.6 8.7 3.1.7 6.3 1.1 9.5 1.1 26.6 0 48-25.2 48-56.3z" fill="#c16c37"/><path d="m123.4 33.3c0-3 .2-6 .6-8.9 3.2-.8 6.4-1.1 9.8-1.1 27.2 0 49.2 25.8 49.2 57.7 0 3-.2 6-.6 8.9-3.2.8-6.4 1.1-9.8 1.1-27.2.1-49.2-25.7-49.2-57.7z" fill="#c16c37"/><g fill="#194151"><circle cx="116.3" cy="99.3" r="6.3"/><path d="m110.4 97.9-2-4.7 6.1 1.5z"/><circle cx="149.5" cy="99.3" r="6.3"/><path d="m155.4 97.9 2-4.7-6.1 1.5z"/></g><path d="m161.2 51.9c3.9 0 7.7.9 11 2.6.3.2.6-.3.3-.5-4.1-3.3-9.4-5.3-15.1-5.3-13.3 0-24.2 10.8-24.2 24.1 0 7.3 3.3 13.9 8.5 18.3.3.2.6-.1.4-.4-3.2-4.1-5-9.2-5-14.7-.1-13.3 10.7-24.1 24.1-24.1z" fill="#c16c37"/><path d="m120.9 47.9c3.7 1.3 6.9 3.4 9.5 6 .2.3.6-.1.5-.4-2.8-4.5-7.2-8.1-12.6-9.9-12.6-4.4-26.4 2.3-30.7 14.9-2.4 6.9-1.4 14.2 2 20.1.2.3.6.1.5-.2-1.7-4.9-1.8-10.3 0-15.6 4.4-12.6 18.1-19.3 30.8-14.9z" fill="#c16c37"/><path d="m114 65.8c3.9.6 7.4 2.1 10.5 4.2.3.2.6-.2.4-.4-3.6-3.9-8.5-6.6-14.2-7.4-13.2-2-25.5 7.1-27.4 20.3-1.1 7.2.2 14.6 4.7 19.7.2.3.7 0 .5-.3-2.5-4.5-1.7-10.2-.8-15.7 1.8-13.2 13.1-22.3 26.3-20.4z" fill="#c16c37"/><path d="m126 123.8-9.8-4.5c-1.6-1.2-1.5-3.3.6-3.3 0 0 10.5 1.3 16.2 1.6 5.7.2 14.9-.8 14.9-.8 2 0 1.9 2.1.5 3.3l-7.4 3.6c-4.4 2.4-10.1 2.3-15 .1z" fill="#194151"/><path d="m131.5 112.9-2.8-1.3c-.4-.4-.4-.9.2-.9 0 0 3 .4 4.6.4 1.6.1 4.2-.2 4.2-.2.6 0 .5.6.1.9l-2.1 1c-1.2.8-2.8.7-4.2.1z" fill="#bfb9a5"/><path d="m137.8 58.2c10.4.8 20.4 2.8 29.8 5.9 2.8.9 7.8-7.9 9.6-9.9l-4.1-8.4c2-2.3-72.3 9.7-72.3 9.7 1.4 2.3 3.4 4.5 6.2 4.1 9.9-1.7 20.2-2.2 30.8-1.4z" fill="#c16c37" opacity=".5"/><path d="m134 137.4c13.2 0 14.4-.2 2 5.7-12.6 5.9-29.4.5-38.6-8.4-1.8-1.7 6.3-3.5 7.7-5.6 0-.1 15 8.3 28.9 8.3z" fill="#ece9dc"/><path d="m136.4 136.4c-13.2 0-14.4-.2-2 5.7 12.6 5.9 30.4 4.5 39.6-4.4 1.8-1.7-7.3-7.5-8.7-9.6 0-.1-15 8.3-28.9 8.3z" fill="#ece9dc"/><path d="m139.2 199.9h-7.1c-1.9 0-3.4-1.5-3.4-3.4v-24.5c0-1.9 1.5-3.4 3.4-3.4h7.1c1.9 0 3.4 1.5 3.4 3.4v24.6c0 1.8-1.5 3.3-3.4 3.3z" fill="#194151"/><path d="m151.3 180.7v7.1c0 1.9-1.5 3.4-3.4 3.4h-24.6c-1.9 0-3.4-1.5-3.4-3.4v-7.1c0-1.9 1.5-3.4 3.4-3.4h24.7c1.8 0 3.3 1.5 3.3 3.4z" fill="#194151"/><path d="m147 27.4c12.9 10.1 21.4 27.3 21.4 46.9 0 31.1-21.5 56.3-48 56.3-4.8 0-9.5-.8-13.9-2.4 7.6 5.9 16.7 9.4 26.6 9.4 26.5 0 48-25.2 48-56.3-.1-25.4-14.4-46.9-34.1-53.9z" fill="#ece9dc"/><path d="m134.5 54c9 0 17.8 1.1 26.1 3.1 2.4.6 5-.3 6.4-2.2l7.7-10.5c1.5-2.1 1.2-4.9-.8-6.6-10.2-8.8-24.1-14.2-39.4-14.2-15.5 0-29.5 5.5-39.7 14.4-2 1.7-2.3 4.5-.8 6.6l7.6 10.4c1.4 1.9 4 2.7 6.4 2.2 8.5-2.1 17.3-3.2 26.5-3.2z" fill="#f8f6e8"/><path d="m135.8 54c9 0 17.8 1.1 26.1 3.1 2.4.6 5-.3 6.4-2.2l4.4-5.9c-11-5.1-24.2-6.8-37.6-4.1-10.1 2.1-19.1 6.4-26.5 12.3.3 0 .5-.1.8-.1 8.4-2 17.3-3.1 26.4-3.1z" fill="#ece9dc"/><path d="m134.8 30.8c15.1 0 29.4 5.1 39.8 13.5l.8-1c1.6-2.1 1.2-5-.8-6.8-10.5-9-24-14.5-39.7-14.5-15.8 0-30.8 5.6-41.3 14.8-2.1 1.8-2.4 4.6-.8 6.8l1.8 2.5c.1-.1.2-.3.4-.4 10.4-9.3 24-14.9 39.8-14.9z" fill="#194151"/><path d="m149.3 171.8c-10.8 7.5-36.2 11.8-36.2 11.8h54.5v-29.2c.1-.1-7.4 9.9-18.3 17.4z" fill="#ece9dc"/><path d="m127.7 124.3c4.5 1.6 9.5 1.5 13.5-.7l.2-.1c-1.6-.8-3.8-1.2-6.2-1.2-3.1 0-5.8.8-7.5 2z" fill="#e75f67"/><path d="m197.8 279.3c0 1.9-1.3 3.4-3 3.4h-52.7c26.3-10.7 42.8-17.2 54.3-34z" fill="#ece9dc"/></svg>