<svg enable-background="new 0 0 183 234" viewBox="0 0 183 234" xmlns="http://www.w3.org/2000/svg"><path d="m136.5 215h-95.8c-6.2 0-11.3-5.1-11.3-11.3v-156.9c0-3.5 2.8-6.3 6.3-6.3h105.9c3.5 0 6.3 2.8 6.3 6.3v156.9c0 6.2-5.1 11.3-11.4 11.3z" fill="#f3c74a"/><path d="m32.1 178h47.6c8.5 0 15.4-6.9 15.4-15.4v-84.3c0-8.5-6.9-15.4-15.4-15.4h-47.6c-2.1 0-3.8 1.9-3.8 4.2v106.8c0 2.2 1.7 4.1 3.8 4.1z" fill="#f8eec8"/><path d="m29.1 77.2v-32.1c0-3.5 2.8-6.3 6.3-6.3h105.9c3.5 0 6.3 2.8 6.3 6.3v11.4z" fill="#f3c74a" opacity=".67"/><path d="m156.7 50.3h-136.2c-2.4 0-4.4-2-4.4-4.4v-26c0-2.4 2-4.4 4.4-4.4h136.1c2.4 0 4.4 2 4.4 4.4v26c.1 2.4-1.9 4.4-4.3 4.4z" fill="#f8f6e8"/><g fill="#c0d5d0"><path d="m27.2 51.4v-22.7c0-.6-.5-1.2-1.2-1.2-.6 0-1.2.5-1.2 1.2v22.8c1.1-.1 1.7-.1 2.4-.1z"/><path d="m48.4 51.4v-22.7c0-.6-.5-1.2-1.2-1.2-.6 0-1.2.5-1.2 1.2v22.8c1.1-.1 1.8-.1 2.4-.1z"/><path d="m69.7 51.4v-22.7c0-.6-.5-1.2-1.2-1.2-.6 0-1.2.5-1.2 1.2v22.8c1.1-.1 1.7-.1 2.4-.1z"/><path d="m90.9 51.4v-22.7c0-.6-.5-1.2-1.2-1.2-.6 0-1.2.5-1.2 1.2v22.8c1.1-.1 1.7-.1 2.4-.1z"/><path d="m112.2 51.4v-22.7c0-.6-.5-1.2-1.2-1.2-.6 0-1.2.5-1.2 1.2v22.8c1.1-.1 1.7-.1 2.4-.1z"/><path d="m133.4 51.4v-22.7c0-.6-.5-1.2-1.2-1.2-.6 0-1.2.5-1.2 1.2v22.8c1.1-.1 1.8-.1 2.4-.1z"/><path d="m154.7 51.4v-22.7c0-.6-.5-1.2-1.2-1.2-.6 0-1.2.5-1.2 1.2v22.8c1.1-.1 1.7-.1 2.4-.1z"/></g><path d="m156.7 51.9h-136.2c-2.4 0-4.4-2-4.4-4.4v-8.2c0-.4.3-.7.7-.7h143.5c.4 0 .7.3.7.7v8.2c.1 2.5-1.9 4.4-4.3 4.4z" fill="#f8f6e8"/></svg>