<svg enable-background="new 0 0 367.5 111.5" viewBox="0 0 367.5 111.5" xml:space="preserve" xmlns="http://www.w3.org/2000/svg"><path d="m349.6 89.2h-325c-2.5 0-4.5-2-4.5-4.5v-55.7c0-2.5 2-4.5 4.5-4.5h325c2.5 0 4.5 2 4.5 4.5v55.7c.1 2.5-2 4.5-4.5 4.5z" fill="#f8f6e8"/><path d="m124.2 79.4c-2.2 0-4-1.8-4-4v-14.6c0-2.2 1.8-4 4-4 2.2 0 4 1.8 4 4v14.6c0 2.2-1.8 4-4 4z" fill="#c16c37" opacity=".17"/><path d="m123.5 78.6c-2.2 0-4-1.8-4-4v-14.6c0-2.2 1.8-4 4-4 2.2 0 4 1.8 4 4v14.6c0 2.2-1.8 4-4 4z" fill="#f8eec8"/><path d="m123.5 78.7c-2.2 0-4-1.8-4-4v-7.8h8v7.8c0 2.2-1.8 4-4 4z" fill="#f3c74a"/><path d="m125.9 57.1c.5.8.8 1.9.8 3v12.4c0 2.8-1.8 5.1-4 5.1-.9 0-1.7-.4-2.3-1 .7 1.3 1.9 2.1 3.3 2.1 2.2 0 4-2.3 4-5.1v-12.4c-.1-1.7-.8-3.2-1.8-4.1z" fill="#f8eec8"/><path d="m181.7 76.2c-2 .9-4.4 0-5.3-2l-6-13.3c-.9-2 0-4.4 2-5.3 2-.9 4.4 0 5.3 2l6 13.3c.9 2 0 4.4-2 5.3z" fill="#c16c37" opacity=".17"/><path d="m180.7 75.8c-2 .9-4.4 0-5.3-2l-6-13.3c-.9-2 0-4.4 2-5.3 2-.9 4.4 0 5.3 2l6 13.3c.9 2 0 4.4-2 5.3z" fill="#f8eec8"/><path d="m180.8 75.9c-2 .9-4.4 0-5.3-2l-3.2-7.1 7.3-3.3 3.2 7.1c.9 2 0 4.4-2 5.3z" fill="#f3c74a"/><path d="m174 55.2c.8.6 1.5 1.4 1.9 2.4l5.1 11.3c1.2 2.6.5 5.4-1.5 6.3-.8.4-1.7.4-2.5.1 1.2.9 2.6 1.2 3.8.6 2-.9 2.7-3.8 1.5-6.3l-5.1-11.3c-.6-1.6-1.9-2.7-3.2-3.1z" fill="#f8eec8"/><path d="m173.1 38.4c-.6-2.1.6-4.4 2.7-5l14-4.2c2.1-.6 4.4.6 5 2.7.6 2.1-.6 4.4-2.7 5l-14 4.2c-2.1.6-4.4-.6-5-2.7z" fill="#c16c37" opacity=".17"/><path d="m173.6 37.5c-.6-2.1.6-4.4 2.7-5l14-4.2c2.1-.6 4.4.6 5 2.7.6 2.1-.6 4.4-2.7 5l-14 4.2c-2.1.6-4.4-.6-5-2.7z" fill="#f8eec8"/><path d="m173.5 37.5c-.6-2.1.6-4.4 2.7-5l7.5-2.2 2.3 7.7-7.5 2.2c-2.1.6-4.4-.6-5-2.7z" fill="#f3c74a"/><path d="m195 33.6c-.7.7-1.6 1.3-2.6 1.6l-11.9 3.6c-2.7.8-5.4-.3-6.1-2.4-.3-.8-.1-1.7.3-2.5-1 1.1-1.5 2.5-1.1 3.7.6 2.1 3.4 3.2 6.1 2.4l11.9-3.6c1.5-.5 2.7-1.6 3.4-2.8z" fill="#f8eec8"/><path d="m230.1 81.1c-2.1.8-4.4-.3-5.2-2.3l-5.2-13.6c-.8-2.1.3-4.4 2.3-5.2 2.1-.8 4.4.3 5.2 2.3l5.2 13.6c.8 2.1-.3 4.5-2.3 5.2z" fill="#c16c37" opacity=".17"/><path d="m229.1 80.7c-2.1.8-4.4-.3-5.2-2.3l-5.2-13.6c-.8-2.1.3-4.4 2.3-5.2 2.1-.8 4.4.3 5.2 2.3l5.2 13.6c.8 2.1-.2 4.4-2.3 5.2z" fill="#f8eec8"/><path d="m229.1 80.8c-2.1.8-4.4-.3-5.2-2.3l-2.8-7.3 7.5-2.9 2.8 7.3c.8 2.1-.2 4.4-2.3 5.2z" fill="#f3c74a"/><path d="m223.7 59.7c.7.6 1.4 1.5 1.8 2.5l4.4 11.6c1 2.6.1 5.4-1.9 6.2-.8.3-1.7.3-2.5-.1 1.1.9 2.6 1.3 3.8.8 2.1-.8 2.9-3.6 1.9-6.2l-4.5-11.5c-.6-1.6-1.8-2.8-3-3.3z" fill="#f8eec8"/><path d="m251.6 51.2c-1.8 1.2-4.3.7-5.6-1.1l-8-12.2c-1.2-1.8-.7-4.3 1.1-5.6 1.8-1.2 4.3-.7 5.6 1.1l8 12.2c1.3 1.9.7 4.4-1.1 5.6z" fill="#c16c37" opacity=".17"/><path d="m250.6 51c-1.8 1.2-4.3.7-5.6-1.1l-8-12.2c-1.2-1.8-.7-4.3 1.1-5.6 1.8-1.2 4.3-.7 5.6 1.1l8 12.2c1.2 1.9.7 4.4-1.1 5.6z" fill="#f8eec8"/><path d="m250.6 51.1c-1.8 1.2-4.3.7-5.6-1.1l-4.3-6.5 6.7-4.4 4.3 6.5c1.3 1.8.8 4.3-1.1 5.5z" fill="#f3c74a"/><path d="m240.7 31.7c.9.4 1.7 1.2 2.3 2.1l6.8 10.3c1.6 2.4 1.3 5.3-.5 6.5-.7.5-1.6.6-2.5.5 1.3.7 2.8.7 3.9 0 1.8-1.2 2.1-4.1.5-6.5l-6.8-10.3c-.9-1.5-2.3-2.4-3.7-2.6z" fill="#f8eec8"/><path d="m344.9 51.9c-1.8 1.2-4.3.7-5.6-1.1l-8-12.2c-1.2-1.8-.7-4.3 1.1-5.6 1.8-1.2 4.3-.7 5.6 1.1l8 12.2c1.3 1.9.8 4.4-1.1 5.6z" fill="#c16c37" opacity=".17"/><path d="m343.9 51.7c-1.8 1.2-4.3.7-5.6-1.1l-8-12.2c-1.2-1.8-.7-4.3 1.1-5.6 1.8-1.2 4.3-.7 5.6 1.1l8 12.2c1.3 1.9.8 4.4-1.1 5.6z" fill="#f8eec8"/><path d="m344 51.8c-1.8 1.2-4.3.7-5.6-1.1l-4.3-6.5 6.7-4.4 4.3 6.5c1.2 1.8.7 4.3-1.1 5.5z" fill="#f3c74a"/><path d="m334.1 32.4c.9.4 1.7 1.2 2.3 2.1l6.8 10.3c1.6 2.4 1.3 5.3-.5 6.5-.7.5-1.6.6-2.5.5 1.3.7 2.8.7 3.9 0 1.8-1.2 2.1-4.1.5-6.5l-6.8-10.3c-1-1.5-2.4-2.4-3.7-2.6z" fill="#f8eec8"/><path d="m277.6 50.2c2.1.7 3.2 3 2.5 5.1l-4.7 13.8c-.7 2.1-3 3.2-5.1 2.5-2.1-.7-3.2-3-2.5-5.1l4.7-13.8c.7-2.1 3-3.2 5.1-2.5z" fill="#c16c37" opacity=".17"/><path d="m278.1 51.1c2.1.7 3.2 3 2.5 5.1l-4.7 13.8c-.7 2.1-3 3.2-5.1 2.5-2.1-.7-3.2-3-2.5-5.1l4.7-13.8c.7-2.1 3-3.2 5.1-2.5z" fill="#f8eec8"/><path d="m278.1 51c2.1.7 3.2 3 2.5 5.1l-2.5 7.4-7.6-2.6 2.5-7.4c.7-2.1 3-3.2 5.1-2.5z" fill="#f3c74a"/><path d="m268.9 70.7c-.2-1-.1-2 .2-3.1l4-11.7c.9-2.7 3.4-4.3 5.4-3.6.8.3 1.5.9 1.9 1.7-.3-1.5-1.1-2.6-2.4-3.1-2.1-.7-4.5.9-5.4 3.6l-4 11.7c-.5 1.7-.4 3.3.3 4.5z" fill="#f8eec8"/><path d="m316.5 63.1c2.1-.5 4.3.9 4.8 3l3.3 14.2c.5 2.2-.8 4.3-3 4.8-2.1.5-4.3-.9-4.8-3l-3.3-14.2c-.5-2.2.9-4.3 3-4.8z" fill="#c16c37" opacity=".17"/><path d="m317.4 63.6c2.1-.5 4.3.9 4.8 3l3.3 14.2c.5 2.2-.8 4.3-3 4.8-2.1.5-4.3-.9-4.8-3l-3.3-14.2c-.5-2.1.9-4.3 3-4.8z" fill="#f8eec8"/><path d="m317.4 63.5c2.1-.5 4.3.9 4.8 3l1.8 7.6-7.8 1.8-1.8-7.6c-.5-2.1.8-4.3 3-4.8z" fill="#f3c74a"/><path d="m319.9 85.2c-.7-.7-1.2-1.7-1.4-2.7l-2.8-12.1c-.6-2.7.6-5.4 2.7-5.9.8-.2 1.7 0 2.5.4-1-1.1-2.4-1.6-3.7-1.3-2.1.5-3.4 3.2-2.7 5.9l2.8 12.1c.5 1.5 1.4 2.9 2.6 3.6z" fill="#f8eec8"/><path d="m275.9 37.2c2.1-2.2 5.6-2.4 7.8-.3l9.8 9.1c2.2 2.1 2.4 5.6.3 7.8-2.1 2.2-5.6 2.4-7.8.3l-9.8-9.1c-2.2-2.1-2.3-5.6-.3-7.8z" fill="#c16c37" opacity=".17"/><path d="m277.2 37c2.1-2.2 5.6-2.4 7.8-.3l9.8 9.1c2.2 2.1 2.4 5.6.3 7.8-2.1 2.2-5.6 2.4-7.8.3l-9.8-9.1c-2.2-2.1-2.3-5.6-.3-7.8z" fill="#bfa6c2"/><path d="m277.1 36.9c2.1-2.2 5.6-2.4 7.8-.3l5.3 4.9-7.5 8.1-5.3-4.9c-2.2-2.1-2.3-5.6-.3-7.8z" fill="#783361"/><path d="m292 55.2c-1.1-.1-2.2-.6-3.1-1.4l-9.8-9.1c-2.2-2.1-2.4-5.6-.3-7.8.8-.9 1.9-1.4 3-1.7-1.7-.2-3.5.4-4.7 1.7-2.1 2.2-1.9 5.8.3 7.8l9.8 9.1c1.3 1.3 3.1 1.8 4.8 1.4z" fill="#473654" opacity=".16"/><path d="m90.2 41.4c3-.4 5.8 1.8 6.2 4.8l1.6 13.3c.4 3-1.8 5.8-4.8 6.2-3 .4-5.8-1.8-6.2-4.8l-1.6-13.3c-.4-3.1 1.8-5.8 4.8-6.2z" fill="#c16c37" opacity=".17"/><path d="m91.3 42.1c3-.4 5.8 1.8 6.2 4.8l1.5 13.3c.4 3-1.8 5.8-4.8 6.2-3 .4-5.8-1.8-6.2-4.8l-1.6-13.3c-.3-3.1 1.9-5.8 4.9-6.2z" fill="#bfa6c2"/><path d="m91.3 42c3-.4 5.8 1.8 6.2 4.8l.9 7.2-11 1.3-.9-7.2c-.4-3 1.8-5.8 4.8-6.1z" fill="#783361"/><path d="m90.7 65.6c-.8-.8-1.3-1.9-1.4-3.1l-1.6-13.3c-.4-3 1.8-5.8 4.8-6.2 1.2-.1 2.4.1 3.3.7-1.2-1.3-2.9-2-4.7-1.8-3 .4-5.2 3.1-4.8 6.2l1.6 13.3c.2 1.8 1.3 3.4 2.8 4.2z" fill="#473654" opacity=".16"/><path d="m148.8 54.9c2.4 1.8 2.9 5.3 1 7.8l-8.1 10.6c-1.8 2.4-5.3 2.9-7.8 1-2.4-1.8-2.9-5.3-1-7.8l8.1-10.6c1.9-2.4 5.4-2.9 7.8-1z" fill="#c16c37" opacity=".17"/><path d="m149.1 56.1c2.4 1.8 2.9 5.3 1 7.8l-8.1 10.6c-1.8 2.4-5.3 2.9-7.8 1-2.4-1.8-2.9-5.3-1-7.8l8.1-10.6c1.9-2.3 5.4-2.8 7.8-1z" fill="#bfa6c2"/><path d="m149.2 56.1c2.4 1.8 2.9 5.3 1 7.8l-4.4 5.7-8.8-6.7 4.4-5.7c1.9-2.5 5.4-3 7.8-1.1z" fill="#783361"/><path d="m132.3 72.6c0-1.1.4-2.2 1.1-3.2l8.1-10.6c1.8-2.4 5.3-2.9 7.8-1 1 .7 1.6 1.7 1.9 2.8 0-1.7-.7-3.4-2.2-4.6-2.4-1.8-5.9-1.4-7.8 1l-8.1 10.6c-1 1.5-1.3 3.4-.8 5z" fill="#473654" opacity=".16"/><path d="m240.9 60.1c3-.4 5.8 1.8 6.2 4.8l1.6 13.3c.4 3-1.8 5.8-4.8 6.2-3 .4-5.8-1.8-6.2-4.8l-1.7-13.4c-.3-3 1.8-5.8 4.9-6.1z" fill="#c16c37" opacity=".17"/><path d="m242 60.8c3-.4 5.8 1.8 6.2 4.8l1.6 13.3c.4 3-1.8 5.8-4.8 6.2-3 .4-5.8-1.8-6.2-4.8l-1.6-13.3c-.4-3.1 1.8-5.9 4.8-6.2z" fill="#bfa6c2"/><path d="m242 60.6c3-.4 5.8 1.8 6.2 4.8l.9 7.2-11.1 1.4-.9-7.2c-.3-3 1.9-5.8 4.9-6.2z" fill="#783361"/><path d="m241.4 84.3c-.8-.8-1.3-1.9-1.4-3.1l-1.6-13.3c-.4-3 1.8-5.8 4.8-6.2 1.2-.1 2.4.1 3.3.7-1.2-1.3-2.9-2-4.7-1.8-3 .4-5.2 3.1-4.8 6.2l1.6 13.3c.2 1.8 1.3 3.3 2.8 4.2z" fill="#473654" opacity=".16"/><ellipse cx="146.1" cy="41.9" fill="#c0d5d0" opacity=".29" rx="5.4" ry="5.4" transform="matrix(.7157 -.6984 .6984 .7157 12.2832 113.9511)"/><ellipse cx="146.3" cy="40.9" fill="#c0d5d0" rx="5.4" ry="5.4" transform="matrix(.7157 -.6984 .6984 .7157 12.9807 113.786)"/><path d="m151.7 39.9c-.1 1.6-.9 3.2-2.4 4.2-1.7 1.2-4.1 1.2-5.8.1-1.4-.8-2.2-2.1-2.5-3.5-.1 1.8.7 3.7 2.4 4.8 1.7 1.2 4.1 1.2 5.9.1 2-1.3 2.8-3.6 2.4-5.7z" fill="#9fb7b2"/><path d="m151.1 43.3-9.2-5.5c-.2.2-.2.1-.3.4s-.1.2-.2.4l9.2 5.5c.2-.2.2-.1.3-.4.2-.2.1-.2.2-.4z" fill="#6a9a9b" opacity=".6"/><ellipse cx="132.5" cy="48" fill="#c0d5d0" opacity=".29" rx="5.4" ry="5.4" transform="matrix(.7157 -.6984 .6984 .7157 4.106 106.1636)"/><ellipse cx="132.6" cy="47.1" fill="#c0d5d0" rx="5.4" ry="5.4" transform="matrix(.7157 -.6984 .6984 .7157 4.8035 105.9985)"/><path d="m138 46c-.1 1.6-.9 3.2-2.4 4.2-1.7 1.2-4.1 1.2-5.8.1-1.4-.8-2.2-2.1-2.5-3.5-.1 1.8.7 3.7 2.4 4.8 1.7 1.2 4.1 1.2 5.9.1 2.1-1.2 2.9-3.6 2.4-5.7z" fill="#9fb7b2"/><path d="m135.2 51.8-4.4-9.8c-.3.1-.2 0-.5.1s-.2.1-.4.3l4.4 9.8c.3-.1.2 0 .5-.1.3-.2.2-.2.4-.3z" fill="#6a9a9b" opacity=".6"/><ellipse cx="191.6" cy="62.4" fill="#c0d5d0" opacity=".29" rx="5.4" ry="5.4" transform="matrix(.6905 -.7233 .7233 .6905 14.1154 157.8784)"/><ellipse cx="192.5" cy="62.6" fill="#c0d5d0" rx="5.4" ry="5.4" transform="matrix(.6905 -.7233 .7233 .6905 14.326 158.596)"/><path d="m193.8 67.9c-1.6 0-3.2-.8-4.3-2.2-1.2-1.7-1.4-4-.3-5.8.8-1.4 2-2.2 3.4-2.6-1.8 0-3.7.8-4.8 2.6s-1.1 4.1.1 5.9c1.4 1.9 3.8 2.7 5.9 2.1z" fill="#9fb7b2"/><path d="m190.4 67.5 5.1-9.4c-.2-.2-.1-.2-.4-.3s-.2-.1-.5-.2l-5.1 9.4c.2.2.1.2.4.3s.2.1.5.2z" fill="#6a9a9b" opacity=".6"/><ellipse cx="184.9" cy="49" fill="#c0d5d0" opacity=".29" rx="5.4" ry="5.4" transform="matrix(.6905 -.7233 .7233 .6905 21.7758 148.9265)"/><ellipse cx="185.9" cy="49.1" fill="#c0d5d0" rx="5.4" ry="5.4" transform="matrix(.6905 -.7233 .7233 .6905 21.9864 149.6441)"/><path d="m187.1 54.5c-1.6 0-3.2-.8-4.3-2.2-1.2-1.7-1.4-4-.3-5.8.8-1.4 2-2.2 3.4-2.6-1.8 0-3.7.8-4.8 2.6s-1.1 4.1.1 5.9c1.5 1.9 3.9 2.6 5.9 2.1z" fill="#9fb7b2"/><path d="m181.3 51.9 9.6-4.7c-.1-.3 0-.2-.1-.5s-.1-.2-.3-.4l-9.6 4.7c.1.3 0 .2.1.5s.1.2.3.4z" fill="#6a9a9b" opacity=".6"/><ellipse cx="232.2" cy="51.1" fill="#c0d5d0" opacity=".29" rx="5.4" ry="5.4" transform="matrix(.6905 -.7233 .7233 .6905 34.8975 183.7852)"/><ellipse cx="233.2" cy="51.2" fill="#c0d5d0" rx="5.4" ry="5.4" transform="matrix(.6905 -.7233 .7233 .6905 35.1082 184.5028)"/><path d="m234.4 56.6c-1.6 0-3.2-.8-4.3-2.2-1.2-1.7-1.4-4-.3-5.8.8-1.4 2-2.2 3.4-2.6-1.8 0-3.7.8-4.8 2.6s-1.1 4.1.1 5.9c1.5 1.9 3.8 2.6 5.9 2.1z" fill="#9fb7b2"/><path d="m231 56.1 5.1-9.4c-.2-.2-.1-.2-.4-.3s-.2-.1-.5-.2l-5.1 9.4c.2.2.1.2.4.3.3.2.3.1.5.2z" fill="#6a9a9b" opacity=".6"/><ellipse cx="225.6" cy="37.7" fill="#c0d5d0" opacity=".29" rx="5.4" ry="5.4" transform="matrix(.6905 -.7233 .7233 .6905 42.5579 174.8333)"/><ellipse cx="226.5" cy="37.8" fill="#c0d5d0" rx="5.4" ry="5.4" transform="matrix(.6905 -.7233 .7233 .6905 42.7686 175.5509)"/><path d="m227.8 43.2c-1.6 0-3.2-.8-4.3-2.2-1.2-1.7-1.4-4-.3-5.8.8-1.4 2-2.2 3.4-2.6-1.8 0-3.7.8-4.8 2.6s-1.1 4.1.1 5.9c1.5 1.9 3.8 2.6 5.9 2.1z" fill="#9fb7b2"/><path d="m221.9 40.6 9.6-4.7c-.1-.3 0-.2-.1-.5s-.1-.2-.3-.4l-9.6 4.7c.1.3 0 .2.1.5.2.2.2.1.3.4z" fill="#6a9a9b" opacity=".6"/><ellipse cx="331.6" cy="75.1" fill="#c0d5d0" opacity=".29" rx="5.4" ry="5.4" transform="matrix(.6905 -.7233 .7233 .6905 48.2783 263.0597)"/><ellipse cx="332.5" cy="75.2" fill="#c0d5d0" rx="5.4" ry="5.4" transform="matrix(.6905 -.7233 .7233 .6905 48.4889 263.7773)"/><path d="m333.8 80.6c-1.6 0-3.2-.8-4.3-2.2-1.2-1.7-1.4-4-.3-5.8.8-1.4 2-2.2 3.4-2.6-1.8 0-3.7.8-4.8 2.6s-1.1 4.1.1 5.9c1.4 1.9 3.8 2.6 5.9 2.1z" fill="#9fb7b2"/><path d="m330.4 80.1 5.1-9.4c-.2-.2-.1-.2-.4-.3s-.2-.1-.5-.2l-5.1 9.4c.2.2.1.2.4.3s.2.1.5.2z" fill="#6a9a9b" opacity=".6"/><ellipse cx="324.9" cy="61.7" fill="#c0d5d0" opacity=".29" rx="5.4" ry="5.4" transform="matrix(.6905 -.7233 .7233 .6905 55.9387 254.1077)"/><ellipse cx="325.9" cy="61.8" fill="#c0d5d0" rx="5.4" ry="5.4" transform="matrix(.6905 -.7233 .7233 .6905 56.1493 254.8253)"/><path d="m327.1 67.2c-1.6 0-3.2-.8-4.3-2.2-1.2-1.7-1.4-4-.3-5.8.8-1.4 2-2.2 3.4-2.6-1.8 0-3.7.8-4.8 2.6s-1.1 4.1.1 5.9c1.5 1.9 3.9 2.6 5.9 2.1z" fill="#9fb7b2"/><path d="m321.3 64.6 9.6-4.7c-.1-.3 0-.2-.1-.5s-.1-.2-.3-.4l-9.6 4.7c.1.3 0 .2.1.5s.1.1.3.4z" fill="#6a9a9b" opacity=".6"/><ellipse cx="282.6" cy="77.5" fill="#c0d5d0" opacity=".29" rx="5.4" ry="5.4" transform="matrix(.9948 -.1023 .1023 .9948 -6.4476 29.3146)"/><ellipse cx="283.2" cy="78.2" fill="#c0d5d0" rx="5.4" ry="5.4" transform="matrix(.9948 -.1023 .1023 .9948 -6.5156 29.3843)"/><path d="m280.7 83.1c-1.2-1.1-1.9-2.7-1.8-4.5.2-2.1 1.6-3.9 3.5-4.6 1.5-.5 3-.4 4.3.2-1.4-1.2-3.3-1.7-5.3-1.1s-3.5 2.5-3.7 4.6c-.2 2.4 1.1 4.5 3 5.4z" fill="#9fb7b2"/><path d="m278.4 80.6 10-3.8c-.1-.3 0-.2-.1-.5s-.1-.2-.2-.4l-10 3.8c.1.3 0 .2.1.5.1.2.1.1.2.4z" fill="#6a9a9b" opacity=".6"/><ellipse cx="286.3" cy="63" fill="#c0d5d0" opacity=".29" rx="5.4" ry="5.4" transform="matrix(.9948 -.1023 .1023 .9948 -4.943 29.6136)"/><ellipse cx="286.9" cy="63.7" fill="#c0d5d0" rx="5.4" ry="5.4" transform="matrix(.9948 -.1023 .1023 .9948 -5.011 29.6832)"/><path d="m284.4 68.6c-1.2-1.1-1.9-2.7-1.8-4.5.2-2.1 1.6-3.9 3.5-4.6 1.5-.5 3-.4 4.3.2-1.4-1.2-3.3-1.7-5.3-1.1s-3.5 2.5-3.7 4.6c-.3 2.4 1.1 4.5 3 5.4z" fill="#9fb7b2"/><path d="m281.6 62.8 10.4 2.7c.1-.3.1-.2.2-.4.1-.3 0-.2 0-.5l-10.4-2.7c-.1.3-.1.2-.2.4z" fill="#6a9a9b" opacity=".6"/><g fill="#f3c74a" opacity=".63"><path d="m349.6 23.8h-233v64.8h233c2.5 0 4.5-2 4.5-4.5v-55.8c.1-2.5-2-4.5-4.5-4.5z"/><path d="m24.7 23.8c-2.5 0-4.5 2-4.5 4.5v55.7c0 2.5 2 4.5 4.5 4.5h43.3v-64.7z"/></g><g fill="#f8eec8"><path d="m70.6 80.8v-43.2c0-1.2-.5-2.2-1.2-2.2-.6 0-1.2 1-1.2 2.2v43.3c1.1-.1 1.7-.1 2.4-.1z"/><path d="m115.8 80.8v-43.2c0-1.2-.5-2.2-1.2-2.2-.6 0-1.2 1-1.2 2.2v43.3c1.1-.1 1.7-.1 2.4-.1z"/><path d="m164 80.8v-43.2c0-1.2-.5-2.2-1.2-2.2-.6 0-1.2 1-1.2 2.2v43.3c1.1-.1 1.7-.1 2.4-.1z"/><path d="m212.2 80.8v-43.2c0-1.2-.5-2.2-1.2-2.2-.6 0-1.2 1-1.2 2.2v43.3c1.1-.1 1.7-.1 2.4-.1z"/><path d="m260.4 80.8v-43.2c0-1.2-.5-2.2-1.2-2.2-.6 0-1.2 1-1.2 2.2v43.3c1.1-.1 1.7-.1 2.4-.1z"/><path d="m308.6 80.8v-43.2c0-1.2-.5-2.2-1.2-2.2-.6 0-1.2 1-1.2 2.2v43.3c1.1-.1 1.7-.1 2.4-.1z"/><text font-family="'Geomanist-Bold'" font-size="30.1678" transform="translate(35.332 67.8081)">S              T    W    T      F     S</text></g></svg>