<svg enable-background="new 0 0 735 401.3" viewBox="0 0 735 401.3" xmlns="http://www.w3.org/2000/svg"><path d="m388.2 242.6c-8 0-14.5-6.6-14.5-14.6l.1-48.8c0-8 6.6-14.5 14.6-14.5 8 0 14.5 6.6 14.5 14.6l-.1 48.8c-.1 8-6.6 14.5-14.6 14.5z" fill="#e85f67"/><path d="m388.2 243c-8 0-14.5-6.6-14.5-14.6v-26.2h29.1v26.2c-.1 8-6.6 14.6-14.6 14.6z" fill="#f58878"/><path d="m388.4 164.9c-.7 0-1.3 0-2 .1 3.2 2.7 5.3 6.7 5.3 11.2l-.1 48.8c0 7.3-5.5 13.4-12.6 14.4 2.5 2.1 5.7 3.3 9.2 3.4 8 0 14.6-6.5 14.6-14.5l.1-48.8c0-8-6.5-14.6-14.5-14.6z" fill="#f7c2b7"/><circle cx="367.5" cy="82.6" fill="#966992" r="40.4"/><path d="m395.9 53.7c5.4 6.9 8.6 15.5 8.6 24.9 0 22.3-18.1 40.4-40.4 40.4-11.1 0-21.1-4.5-28.5-11.7 7.4 9.5 18.9 15.6 31.9 15.6 22.3 0 40.4-18.1 40.4-40.4 0-11.3-4.6-21.5-12-28.8z" fill="#966992" opacity=".42"/><path d="m382.2 45.2-39.9 69.1c1.6 1.3.9 1.2 2.8 2.3s1.4.5 3.3 1.3l39.9-69.1c-1.6-1.3-.9-1.2-2.8-2.3-1.8-1.1-1.3-.6-3.3-1.3z" fill="#966992" opacity=".6"/><g fill="#184e67"><path d="m50.4 44.9h8.9v77h-8.9z"/><path d="m126.6 104.8 27.7-60h11.3v77h-8.6v-64l-26 57h-8.8l-26-57v64.1h-8.6v-77h11.4z"/><path d="m194.1 44.9h21.1c14 0 23 8.2 23 22.2 0 13.9-9.5 22.6-23 22.6h-12.2v32.2h-8.9zm20.3 36.8c9.2 0 14.6-5.7 14.6-14.6 0-8.8-5.4-14.3-14.6-14.3h-11.4v28.9z"/><path d="m260.9 44.9h19.6c15.7 0 24 7.9 24 21.3 0 9.1-4.5 17.5-13.4 20.4l19.1 35.3h-9.9l-17.4-33.4h-13.1v33.4h-8.9zm19.6 35.7c9 0 14.6-4.2 14.6-14.3 0-8.1-4.3-13.5-15.2-13.5h-10.1v27.8z"/><path d="m448.4 121.9-29.3-77h9.8l24.2 66.4 24.3-66.4h9.8l-29.3 77z"/><path d="m507.9 44.9h8.9v77h-8.9z"/><path d="m545.1 44.9h8.9l42.5 62.9v-62.9h8.8v77h-8.8l-42.5-62.7v62.7h-8.9z"/><path d="m696.5 54.7-5.7 5.9c-3.5-3.4-10.3-8.8-22.4-8.8-17.7 0-29.8 13.6-29.8 31.7 0 18.6 12.5 31.6 29.7 31.6 12.9 0 20.1-5.6 22.6-8v-16.2h-17.2v-7.8h25.7v27.8c-8.4 8.5-18.4 12.4-31.5 12.4-21.9 0-38.7-16.4-38.7-39.8 0-22.6 16.4-40 38.9-40 15.3 0 24.5 7.1 28.4 11.2z"/><path d="m165.5 224.8 27.7-60h11.3v77h-8.5v-64.1l-26.1 57.1h-8.8l-26.1-57v64.1h-8.6v-77h11.4z"/><path d="m232.9 164.9h36.5v8.1h-27.6v25.6h24.1v8h-24.1v27.2h28.8v8h-37.7z"/><path d="m296.1 164.9h15.8c26.3 0 41.2 14.4 41.2 38.5 0 25.5-15.5 38.5-41.2 38.5h-15.8zm17.6 69.1c18.5 0 30.4-10.5 30.4-30.6 0-19.3-11.9-30.5-30.4-30.5h-8.7v61.1z"/><path d="m484.9 234.5c-3 2.6-11.9 8.8-24.9 8.8-22.6 0-39.1-17.2-39.1-39.9s17.1-39.9 38.8-39.9c11.6 0 19.8 4.7 23.9 8l-2.9 7.9c-3-2.4-10.6-7.6-20.8-7.6-17.1 0-29.8 13.6-29.8 31.6 0 17.9 12.2 31.6 30 31.6 11.7 0 19.2-6 21.9-8.2z"/><path d="m519.5 216.9-9.2 25h-9l28.8-77h9l28.8 77h-9l-9.2-25zm15.1-42.2-12.3 34.5h24.7z"/><path d="m589 164.9h8.9v69h28.8v8h-37.7z"/><path d="m58.5 336.9-9.2 25h-9l28.8-77h9l28.8 77h-9l-9.2-25zm15-42.2-12.3 34.5h24.8z"/><path d="m128 284.9h15.8c26.3 0 41.2 14.4 41.2 38.5 0 25.5-15.5 38.5-41.2 38.5h-15.8zm17.6 69.1c18.5 0 30.4-10.5 30.4-30.6 0-19.2-11.9-30.5-30.4-30.5h-8.7v61h8.7z"/><path d="m209.1 284.9h8.9v33.8h40.9v-33.8h8.9v77h-8.9v-35.1h-40.9v35.1h-8.9z"/><path d="m296.2 284.9h36.5v8.1h-27.6v25.6h24.1v8h-24.1v27.2h28.8v8h-37.7z"/><path d="m359.3 284.9h19.6c15.7 0 24 7.9 24 21.3 0 9.1-4.5 17.5-13.4 20.4l19.1 35.3h-9.9l-17.4-33.4h-13.1v33.4h-8.9zm19.6 35.7c9 0 14.6-4.2 14.6-14.3 0-8.1-4.3-13.5-15.2-13.5h-10.1v27.8z"/><path d="m430.5 284.9h36.5v8.1h-27.6v25.6h24.1v8h-24.1v27.2h28.8v8h-37.7z"/><path d="m493.5 284.9h8.9l42.5 62.9v-62.9h8.8v77h-8.8l-42.5-62.7v62.7h-8.9z"/><path d="m641.6 354.5c-3 2.6-11.9 8.8-24.9 8.8-22.6 0-39.1-17.2-39.1-39.9s17.1-39.9 38.8-39.9c11.6 0 19.8 4.7 23.9 8l-2.9 7.9c-3-2.4-10.6-7.6-20.8-7.6-17.1 0-29.8 13.6-29.8 31.6s12.2 31.6 30 31.6c11.7 0 19.2-6 21.9-8.2z"/><path d="m665.2 284.9h36.5v8.1h-27.6v25.6h24.1v8h-24.1v27.2h28.9v8h-37.7v-76.9z"/></g></svg>