<svg enable-background="new 0 0 92 138" viewBox="0 0 92 138" xmlns="http://www.w3.org/2000/svg"><path d="m50 121c-13.3 1-25-9-26.1-22.3l-4.6-58.3c-1-13.3 9-25 22.3-26.1 13.3-1 25 9 26.1 22.3l4.6 58.4c1.1 13.2-9 25-22.3 26z" fill="#f8eec8"/><path d="m50.1 121.5c-13.3 1-25-9-26.1-22.3l-2.5-31.6 48.4-3.8 2.5 31.6c1 13.3-9 25.1-22.3 26.1z" fill="#f3c74a"/><path d="m56.7 18.3c3.2 3.7 5.3 8.5 5.7 13.7l4.6 58.4c1 13.3-9 25-22.3 26.1-5.3.4-10.3-.9-14.5-3.5 4.9 5.7 12.3 9.2 20.4 8.5 13.3-1 23.3-12.8 22.3-26.1l-4.6-58.3c-.6-8.1-5.2-14.9-11.6-18.8z" fill="#f8eec8"/></svg>