<?xml version="1.0" encoding="UTF-8"?><!DOCTYPE svg PUBLIC "-//W3C//DTD SVG 1.1//EN" "http://www.w3.org/Graphics/SVG/1.1/DTD/svg11.dtd"><svg xmlns="http://www.w3.org/2000/svg" xmlns:xlink="http://www.w3.org/1999/xlink"><symbol id="dollar" viewBox="0 0 511.613 511.613">
<g>
	<path d="M385.261,311.475c-2.471-8.367-5.469-15.649-8.99-21.833c-3.519-6.19-8.559-12.228-15.13-18.134   c-6.563-5.903-12.467-10.657-17.702-14.271c-5.232-3.617-12.419-7.661-21.557-12.137c-9.13-4.475-16.364-7.805-21.689-9.995   c-5.332-2.187-13.045-5.185-23.134-8.992c-8.945-3.424-15.605-6.042-19.987-7.849c-4.377-1.809-10.133-4.377-17.271-7.71   c-7.135-3.328-12.465-6.28-15.987-8.848c-3.521-2.568-7.279-5.708-11.277-9.419c-3.998-3.711-6.805-7.661-8.424-11.848   c-1.615-4.188-2.425-8.757-2.425-13.706c0-12.94,5.708-23.507,17.128-31.689c11.421-8.182,26.174-12.275,44.257-12.275   c7.99,0,16.136,1.093,24.41,3.284s15.365,4.659,21.266,7.421c5.906,2.762,11.471,5.808,16.707,9.137   c5.235,3.332,8.945,5.852,11.136,7.565c2.189,1.714,3.576,2.855,4.141,3.427c2.478,1.903,5.041,2.568,7.706,1.999   c2.854-0.19,5.045-1.715,6.571-4.567l23.13-41.684c2.283-3.805,1.811-7.422-1.427-10.85c-1.144-1.142-2.566-2.473-4.291-3.997   c-1.708-1.524-5.421-4.283-11.136-8.282c-5.709-3.996-11.752-7.565-18.124-10.706c-6.379-3.138-14.661-6.328-24.845-9.562   c-10.178-3.239-20.697-5.426-31.549-6.567V9.136c0-2.663-0.855-4.853-2.563-6.567C282.493,0.859,280.303,0,277.634,0h-38.546   c-2.474,0-4.615,0.903-6.423,2.712s-2.712,3.949-2.712,6.424v51.391c-29.884,5.708-54.152,18.461-72.805,38.256   c-18.651,19.796-27.98,42.823-27.98,69.092c0,7.803,0.812,15.226,2.43,22.265c1.616,7.045,3.616,13.374,5.996,18.988   c2.378,5.618,5.758,11.136,10.135,16.562c4.377,5.424,8.518,10.088,12.419,13.988c3.903,3.899,8.995,7.945,15.274,12.131   c6.283,4.19,11.66,7.571,16.134,10.139c4.475,2.56,10.422,5.52,17.843,8.843c7.423,3.333,13.278,5.852,17.561,7.569   c4.283,1.711,10.135,4.093,17.561,7.132c10.277,3.997,17.892,7.091,22.84,9.281c4.952,2.19,11.231,5.235,18.849,9.137   c7.611,3.898,13.176,7.468,16.7,10.705c3.521,3.237,6.708,7.234,9.565,11.991s4.288,9.801,4.288,15.133   c0,15.037-5.853,26.645-17.562,34.823c-11.704,8.187-25.27,12.279-40.685,12.279c-7.036,0-14.084-0.757-21.124-2.279   c-24.744-4.955-47.869-16.851-69.377-35.693l-0.571-0.571c-1.714-2.088-3.999-2.946-6.851-2.563   c-3.046,0.38-5.236,1.523-6.567,3.43l-29.408,38.54c-2.856,3.806-2.663,7.707,0.572,11.704c0.953,1.143,2.618,2.86,4.996,5.14   c2.384,2.289,6.81,5.852,13.278,10.715c6.47,4.856,13.513,9.418,21.128,13.706c7.614,4.281,17.272,8.514,28.98,12.703   c11.708,4.182,23.839,7.131,36.402,8.843v49.963c0,2.478,0.905,4.617,2.712,6.427c1.809,1.811,3.949,2.711,6.423,2.711h38.546   c2.669,0,4.859-0.855,6.57-2.566s2.563-3.901,2.563-6.571v-49.963c30.269-4.948,54.87-17.939,73.806-38.972   c18.938-21.033,28.41-46.11,28.41-75.229C388.994,328.801,387.759,319.855,385.261,311.475z" fill="#c36e37"/>
</g>
<g>
</g>
<g>
</g>
<g>
</g>
<g>
</g>
<g>
</g>
<g>
</g>
<g>
</g>
<g>
</g>
<g>
</g>
<g>
</g>
<g>
</g>
<g>
</g>
<g>
</g>
<g>
</g>
<g>
</g>
</symbol><symbol id="gears" viewBox="0 0 485.213 485.212">
<g>
	<g>
		<path d="M363.909,333.584V272.93h-49.13c-3.463-15.158-9.507-29.286-17.534-42.05l34.83-34.828l-42.914-42.881l-34.812,34.795    c-12.778-8.025-26.906-14.066-42.066-17.529v-49.133h-60.654v49.133c-15.163,3.463-29.288,9.504-42.069,17.558l-34.828-34.824    l-42.881,42.881L66.68,230.88c-8.039,12.764-14.083,26.892-17.548,42.05H0.001v60.654h49.13    c3.465,15.163,9.493,29.29,17.534,42.055l-34.814,34.825l42.886,42.914l34.823-34.83c12.781,8.027,26.906,14.071,42.069,17.534    v49.13h60.654v-49.13c15.161-3.463,29.271-9.507,42.053-17.534l34.825,34.83l42.914-42.914l-34.83-34.825    c8.027-12.797,14.071-26.892,17.534-42.055H363.909z M181.956,379.074c-41.875,0-75.816-33.943-75.816-75.816    c0-41.878,33.941-75.812,75.816-75.812c41.875,0,75.814,33.934,75.814,75.812C257.771,345.13,223.832,379.074,181.956,379.074z" fill="#c36e37"/>
		<path d="M485.212,106.141V75.816h-24.577c-1.718-7.584-4.737-14.631-8.77-21.027l17.417-17.416l-21.445-21.44l-17.412,17.413    c-6.398-4.025-13.441-7.047-21.025-8.765V0h-30.331v24.582c-7.575,1.717-14.627,4.739-21.025,8.767L340.63,15.936l-21.44,21.438    l17.413,17.416c-4.028,6.396-7.053,13.443-8.765,21.027h-24.582v30.327h24.586c1.718,7.58,4.737,14.629,8.761,21.027    l-17.413,17.411l21.44,21.442l17.413-17.415c6.398,4.03,13.45,7.052,21.034,8.77v24.577h30.322v-24.582    c7.584-1.717,14.631-4.737,21.029-8.767l17.413,17.416l21.44-21.44l-17.417-17.413c4.032-6.398,7.052-13.446,8.77-21.027H485.212    L485.212,106.141z M394.236,128.883c-20.937,0-37.906-16.967-37.906-37.906s16.97-37.906,37.906-37.906    c20.94,0,37.905,16.967,37.905,37.906S415.177,128.883,394.236,128.883z" fill="#c36e37"/>
	</g>
</g>
<g>
</g>
<g>
</g>
<g>
</g>
<g>
</g>
<g>
</g>
<g>
</g>
<g>
</g>
<g>
</g>
<g>
</g>
<g>
</g>
<g>
</g>
<g>
</g>
<g>
</g>
<g>
</g>
<g>
</g>
</symbol><symbol id="heart" viewBox="0 0 510 510">
<g>
	<g id="favorite">
		<path d="M255,489.6l-35.7-35.7C86.7,336.6,0,257.55,0,160.65C0,81.6,61.2,20.4,140.25,20.4c43.35,0,86.7,20.4,114.75,53.55    C283.05,40.8,326.4,20.4,369.75,20.4C448.8,20.4,510,81.6,510,160.65c0,96.9-86.7,175.95-219.3,293.25L255,489.6z" fill="#c36e37"/>
	</g>
</g>
<g>
</g>
<g>
</g>
<g>
</g>
<g>
</g>
<g>
</g>
<g>
</g>
<g>
</g>
<g>
</g>
<g>
</g>
<g>
</g>
<g>
</g>
<g>
</g>
<g>
</g>
<g>
</g>
<g>
</g>
</symbol><symbol id="tally">
<path fill-rule="evenodd" fill="rgb(192, 109, 58)" d="M38.247,9.237 L32.594,11.857 L32.594,27.728 C32.594,28.517 31.954,29.156 31.165,29.156 L29.897,29.156 C29.108,29.156 28.469,28.517 28.469,27.728 L28.469,13.769 L24.938,15.405 L24.938,27.728 C24.938,28.517 24.298,29.156 23.509,29.156 L22.210,29.156 C21.421,29.156 20.781,28.517 20.781,27.728 L20.781,17.332 L18.313,18.476 L18.313,27.728 C18.313,28.517 17.673,29.156 16.884,29.156 L15.585,29.156 C14.796,29.156 14.156,28.517 14.156,27.728 L14.156,20.402 L10.625,22.039 L10.625,27.728 C10.625,28.517 9.985,29.156 9.196,29.156 L7.929,29.156 C7.140,29.156 6.500,28.517 6.500,27.728 L6.500,23.951 L5.444,24.440 C3.935,25.139 2.004,24.725 1.133,23.511 C0.261,22.300 0.778,20.750 2.288,20.051 L6.500,18.099 L6.500,1.585 C6.500,0.796 7.140,0.156 7.929,0.156 L9.196,0.156 C9.985,0.156 10.625,0.796 10.625,1.585 L10.625,16.187 L14.156,14.551 L14.156,1.585 C14.156,0.796 14.796,0.156 15.585,0.156 L16.884,0.156 C17.673,0.156 18.313,0.796 18.313,1.585 L18.313,12.624 L20.781,11.480 L20.781,1.585 C20.781,0.796 21.421,0.156 22.210,0.156 L23.509,0.156 C24.298,0.156 24.938,0.796 24.938,1.585 L24.938,9.554 L28.469,7.917 L28.469,1.585 C28.469,0.796 29.108,0.156 29.897,0.156 L31.165,0.156 C31.954,0.156 32.594,0.796 32.594,1.585 L32.594,6.006 L35.091,4.848 C36.601,4.148 38.531,4.563 39.403,5.776 C40.274,6.988 39.757,8.537 38.247,9.237 Z"/>
</symbol></svg>