<svg enable-background="new 0 0 225 377" viewBox="0 0 225 377" xmlns="http://www.w3.org/2000/svg"><path d="m175.4 362h-109.2c-16.7 0-30.4-13.7-30.4-30.4v-280.2c0-16.7 13.7-30.4 30.4-30.4h109.3c16.7 0 30.4 13.7 30.4 30.4v280.3c-.1 16.6-13.8 30.3-30.5 30.3z" fill="#5d5e5e" opacity=".07"/><path d="m169.1 356.1h-109.2c-16.7 0-30.4-13.7-30.4-30.4v-280.2c0-16.7 13.7-30.4 30.4-30.4h109.3c16.7 0 30.4 13.7 30.4 30.4v280.3c-.1 16.7-13.8 30.3-30.5 30.3z" fill="#f8f6e8"/><path d="m191.7 25.7c3.4 4.9 5.4 10.9 5.4 17.3v280.3c0 16.7-13.7 30.4-30.4 30.4h-109.2c-8.6 0-16.4-3.6-21.9-9.4 5.5 7.9 14.6 13.1 24.9 13.1h109.3c16.7 0 30.4-13.7 30.4-30.4v-280.4c-.1-8.1-3.3-15.5-8.5-20.9z" fill="#d8d6ce"/><path d="m181 296h-133.7c-3.4 0-6.1-2.7-6.1-6.1v-228.8c0-3.4 2.7-6.1 6.1-6.1h133.7c3.4 0 6.1 2.7 6.1 6.1v228.8c0 3.4-2.7 6.1-6.1 6.1z" fill="#194e66"/><path d="m127.1 46h-26c-3 0-5.5-2.5-5.5-5.5 0-3 2.5-5.5 5.5-5.5h26c3 0 5.5 2.5 5.5 5.5 0 3-2.4 5.5-5.5 5.5z" fill="#ece9dc"/><circle cx="114.1" cy="324.3" fill="#ece9dc" r="18"/><path d="m79.3 99.3h-18.6c-4.4 0-8.1-3.6-8.1-8.1v-18.5c0-4.4 3.6-8.1 8.1-8.1h18.5c4.4 0 8.1 3.6 8.1 8.1v18.5c0 4.5-3.6 8.1-8 8.1z" fill="#783361"/><path d="m123.3 99.3h-18.5c-4.4 0-8.1-3.6-8.1-8.1v-18.5c0-4.4 3.6-8.1 8.1-8.1h18.5c4.4 0 8.1 3.6 8.1 8.1v18.5c-.1 4.5-3.7 8.1-8.1 8.1z" fill="#e75f67"/><path d="m167.3 99.3h-18.5c-4.4 0-8.1-3.6-8.1-8.1v-18.5c0-4.4 3.6-8.1 8.1-8.1h18.5c4.4 0 8.1 3.6 8.1 8.1v18.5c-.1 4.5-3.7 8.1-8.1 8.1z" fill="#c0d5d0"/><path d="m79.3 143.6h-18.6c-4.4 0-8.1-3.6-8.1-8.1v-18.5c0-4.4 3.6-8.1 8.1-8.1h18.5c4.4 0 8.1 3.6 8.1 8.1v18.5c0 4.4-3.6 8.1-8 8.1z" fill="#c0d5d0"/><path d="m123.3 143.6h-18.5c-4.4 0-8.1-3.6-8.1-8.1v-18.5c0-4.4 3.6-8.1 8.1-8.1h18.5c4.4 0 8.1 3.6 8.1 8.1v18.5c-.1 4.4-3.7 8.1-8.1 8.1z" fill="#783361"/><path d="m167.3 143.6h-18.5c-4.4 0-8.1-3.6-8.1-8.1v-18.5c0-4.4 3.6-8.1 8.1-8.1h18.5c4.4 0 8.1 3.6 8.1 8.1v18.5c-.1 4.4-3.7 8.1-8.1 8.1z" fill="#966891"/><path d="m79.3 187.8h-18.6c-4.4 0-8.1-3.6-8.1-8.1v-18.5c0-4.4 3.6-8.1 8.1-8.1h18.5c4.4 0 8.1 3.6 8.1 8.1v18.5c0 4.4-3.6 8.1-8 8.1z" fill="#966891"/><path d="m123.3 187.8h-18.5c-4.4 0-8.1-3.6-8.1-8.1v-18.5c0-4.4 3.6-8.1 8.1-8.1h18.5c4.4 0 8.1 3.6 8.1 8.1v18.5c-.1 4.4-3.7 8.1-8.1 8.1z" fill="#e75f67"/><path d="m167.3 187.8h-18.5c-4.4 0-8.1-3.6-8.1-8.1v-18.5c0-4.4 3.6-8.1 8.1-8.1h18.5c4.4 0 8.1 3.6 8.1 8.1v18.5c-.1 4.4-3.7 8.1-8.1 8.1z" fill="#c0d5d0"/><path d="m79.3 232h-18.6c-4.4 0-8.1-3.6-8.1-8.1v-18.5c0-4.4 3.6-8.1 8.1-8.1h18.5c4.4 0 8.1 3.6 8.1 8.1v18.5c0 4.5-3.6 8.1-8 8.1z" fill="#e75f67"/><path d="m123.3 232h-18.5c-4.4 0-8.1-3.6-8.1-8.1v-18.5c0-4.4 3.6-8.1 8.1-8.1h18.5c4.4 0 8.1 3.6 8.1 8.1v18.5c-.1 4.5-3.7 8.1-8.1 8.1z" fill="#966891"/><path d="m167.3 232h-18.5c-4.4 0-8.1-3.6-8.1-8.1v-18.5c0-4.4 3.6-8.1 8.1-8.1h18.5c4.4 0 8.1 3.6 8.1 8.1v18.5c-.1 4.5-3.7 8.1-8.1 8.1z" fill="#783361"/><path d="m151.1 181.4c-2.4-1.8-2.9-5.3-1.1-7.7l8-10.7c1.8-2.4 5.3-2.9 7.7-1.1 2.4 1.8 2.9 5.3 1.1 7.7l-8 10.7c-1.8 2.4-5.3 2.9-7.7 1.1z" fill="#c16c37" opacity=".17"/><path d="m150.7 180.1c-2.4-1.8-2.9-5.3-1.1-7.7l8-10.7c1.8-2.4 5.3-2.9 7.7-1.1 2.4 1.8 2.9 5.3 1.1 7.7l-8 10.7c-1.8 2.4-5.2 3-7.7 1.1z" fill="#f8eec8"/><path d="m150.7 180.2c-2.4-1.8-2.9-5.3-1.1-7.7l4.3-5.8 8.9 6.6-4.3 5.8c-1.9 2.4-5.4 2.9-7.8 1.1z" fill="#f3c74a"/><path d="m167.3 163.5c0 1.1-.4 2.3-1.1 3.2l-8 10.7c-1.8 2.4-5.3 2.9-7.7 1.1-1-.7-1.6-1.7-2-2.8 0 1.7.7 3.4 2.2 4.5 2.4 1.8 5.9 1.3 7.7-1.1l8-10.7c1.2-1.4 1.4-3.3.9-4.9z" fill="#f8eec8"/><path d="m105.3 163c2.1-2.2 5.6-2.4 7.8-.3l9.8 9.1c2.2 2.1 2.4 5.6.3 7.8-2.1 2.2-5.6 2.4-7.8.3l-9.8-9.1c-2.3-2-2.4-5.6-.3-7.8z" fill="#c16c37" opacity=".17"/><path d="m106.6 162.8c2.1-2.2 5.6-2.4 7.8-.3l9.8 9.1c2.2 2.1 2.4 5.6.3 7.8-2.1 2.2-5.6 2.4-7.8.3l-9.8-9.1c-2.3-2-2.4-5.6-.3-7.8z" fill="#bfa6c2"/><path d="m106.5 162.7c2.1-2.2 5.6-2.4 7.8-.3l5.3 4.9-7.5 8.1-5.3-4.9c-2.3-2-2.4-5.5-.3-7.8z" fill="#783361"/><path d="m121.3 181.1c-1.1-.1-2.2-.6-3.1-1.4l-9.8-9.1c-2.2-2.1-2.4-5.6-.3-7.8.8-.9 1.9-1.4 3-1.7-1.7-.2-3.5.4-4.7 1.7-2.1 2.2-1.9 5.8.3 7.8l9.8 9.1c1.3 1.3 3.2 1.7 4.8 1.4z" fill="#473654" opacity=".16"/><path d="m60 90.2c-1.9-2.4-1.5-5.9.9-7.8l10.5-8.3c2.4-1.9 5.9-1.5 7.8.9 1.9 2.4 1.5 5.9-.9 7.8l-10.5 8.3c-2.4 1.9-5.9 1.5-7.8-.9z" fill="#c16c37" opacity=".17"/><path d="m60 88.9c-1.9-2.4-1.5-5.9.9-7.8l10.5-8.3c2.4-1.9 5.9-1.5 7.8.9 1.9 2.4 1.5 5.9-.9 7.8l-10.5 8.3c-2.4 1.9-5.9 1.5-7.8-.9z" fill="#f7c1b6"/><path d="m59.9 88.9c-1.9-2.4-1.5-5.9.9-7.8l5.7-4.5 6.8 8.7-5.7 4.5c-2.3 2-5.8 1.5-7.7-.9z" fill="#f58777"/><path d="m80.4 77.1c-.3 1.1-.9 2.1-1.9 2.8l-10.5 8.3c-2.4 1.9-5.9 1.5-7.8-.9-.7-.9-1.1-2.1-1.2-3.2-.5 1.7-.2 3.5 1 5 1.9 2.4 5.4 2.8 7.8.9l10.5-8.3c1.4-1.1 2.1-2.9 2.1-4.6z" fill="#f8eec8"/><circle cx="116.3" cy="75.2" fill="#966891" r="5.2"/><circle cx="116.8" cy="75.9" fill="#966891" opacity=".21" r="5.2"/><path d="m118.9 70.5c.8.9 1.4 2.2 1.4 3.5 0 2.9-2.3 5.2-5.2 5.2-1 0-2-.3-2.8-.8 1 1.1 2.3 1.7 3.9 1.7 2.9 0 5.2-2.3 5.2-5.2-.1-1.8-1.1-3.4-2.5-4.4z" fill="#966891"/><path d="m121.2 73.4-10 2.7v.5c.1.3.1.2.2.4l10-2.7c0-.3 0-.2 0-.5-.1-.3-.1-.2-.2-.4z" fill="#783361" opacity=".6"/><circle cx="111.3" cy="88.8" fill="#966891" r="5.2"/><circle cx="111.9" cy="89.5" fill="#966891" opacity=".21" r="5.2"/><path d="m113.9 84.1c.8.9 1.4 2.2 1.4 3.5 0 2.9-2.3 5.2-5.2 5.2-1 0-2-.3-2.8-.8 1 1.1 2.3 1.7 3.9 1.7 2.9 0 5.2-2.3 5.2-5.2 0-1.8-1-3.4-2.5-4.4z" fill="#966891"/><path d="m116.3 90.1-9.7-3.6c-.1.2-.1.1-.2.4s0 .2-.1.5l9.7 3.6c.1-.2.1-.1.2-.4s.1-.2.1-.5z" fill="#783361" opacity=".6"/><ellipse cx="164.8" cy="123.6" fill="#c0d5d0" opacity=".29" rx="5.4" ry="5.4" transform="matrix(.7157 -.6984 .6984 .7157 -39.4435 150.2012)"/><ellipse cx="164.9" cy="122.6" fill="#c0d5d0" rx="5.4" ry="5.4" transform="matrix(.7157 -.6984 .6984 .7157 -38.746 150.0361)"/><path d="m170.3 121.5c-.1 1.6-.9 3.2-2.4 4.2-1.7 1.2-4.1 1.2-5.8.1-1.4-.8-2.2-2.1-2.5-3.5-.1 1.8.7 3.7 2.4 4.8 1.7 1.2 4.1 1.2 5.9.1 2.1-1.2 2.9-3.6 2.4-5.7z" fill="#9fb7b2"/><path d="m169.8 124.9-9.2-5.5c-.2.2-.2.1-.3.4s-.1.2-.2.4l9.2 5.5c.2-.2.2-.1.3-.4.1-.2.1-.1.2-.4z" fill="#6a9a9b" opacity=".6"/><ellipse cx="151.1" cy="129.7" fill="#c0d5d0" opacity=".29" rx="5.4" ry="5.4" transform="matrix(.7157 -.6984 .6984 .7157 -47.6207 142.4137)"/><ellipse cx="151.3" cy="128.8" fill="#c0d5d0" rx="5.4" ry="5.4" transform="matrix(.7157 -.6984 .6984 .7157 -46.9232 142.2486)"/><path d="m156.7 127.7c-.1 1.6-.9 3.2-2.4 4.2-1.7 1.2-4.1 1.2-5.8.1-1.4-.8-2.2-2.1-2.5-3.5-.1 1.8.7 3.7 2.4 4.8 1.7 1.2 4.1 1.2 5.9.1 2-1.3 2.8-3.6 2.4-5.7z" fill="#9fb7b2"/><path d="m153.9 133.5-4.4-9.8c-.3.1-.2 0-.5.1s-.2.1-.4.3l4.4 9.8c.3-.1.2 0 .5-.1.3-.2.2-.2.4-.3z" fill="#6a9a9b" opacity=".6"/><ellipse cx="76.3" cy="218.8" fill="#c0d5d0" opacity=".29" rx="5.4" ry="5.4" transform="matrix(.04467581 -.999 .999 .04467581 -145.6513 285.2314)"/><ellipse cx="77.1" cy="218.2" fill="#f8eec8" rx="5.4" ry="5.4" transform="matrix(.04467581 -.999 .999 .04467581 -144.3658 285.5039)"/><path d="m81.6 221.4c-1.2 1-2.9 1.5-4.7 1.1-2-.5-3.7-2.1-4.1-4.2-.3-1.6.1-3 .8-4.2-1.4 1.2-2.2 3-1.9 5.1s1.9 3.8 4 4.3c2.4.7 4.7-.3 5.9-2.1z" fill="#f3c74a"/><path d="m78.7 223.4-2.3-10.4c-.3 0-.2 0-.5 0-.3.1-.2.1-.4.2l2.3 10.4h.5c.2-.1.1-.1.4-.2z" fill="#f3c74a"/><ellipse cx="62.5" cy="213" fill="#c0d5d0" opacity=".29" rx="5.4" ry="5.4" transform="matrix(.04467581 -.999 .999 .04467581 -153.1083 265.9198)"/><ellipse cx="63.3" cy="212.5" fill="#f8eec8" rx="5.4" ry="5.4" transform="matrix(.04467581 -.999 .999 .04467581 -151.8229 266.1924)"/><path d="m67.8 215.7c-1.2 1-2.9 1.5-4.7 1.1-2-.5-3.7-2.1-4.1-4.2-.3-1.6.1-3 .8-4.2-1.4 1.2-2.2 3-1.9 5.1s1.9 3.8 4 4.3c2.4.7 4.6-.3 5.9-2.1z" fill="#f3c74a"/><path d="m61.6 217.6 4.1-9.9c-.2-.1-.1-.1-.4-.3-.3-.1-.2 0-.5-.1l-4.1 9.9c.2.1.1.1.4.3.3.1.3 0 .5.1z" fill="#f3c74a"/><path d="m104 120.6h19v22.9h-19z" fill="#f3c74a"/><path d="m104.5 142.7h8.9c.7 0 1.2-.5 1.2-1.2v-16.1c0-.7-.5-1.2-1.2-1.2h-8.9c-.3 0-.6.3-.6.7v17.1c0 .4.2.7.6.7z" fill="#f8eec8"/><path d="m104 126.5v-5.2c0-.6.5-1 1-1h17c.6 0 1 .5 1 1v1.8z" fill="#f3c74a" opacity=".67"/><path d="m124.2 122.2h-21.3c-.6 0-1-.4-1-1v-3.6c0-.6.4-1 1-1h21.3c.6 0 1 .4 1 1v3.6c-.1.6-.5 1-1 1z" fill="#f8f6e8"/><g fill="#c0d5d0"><path d="m103.7 122.4v-3.7c0-.1-.1-.2-.2-.2-.1 0-.2.1-.2.2v3.7z"/><path d="m107.1 122.4v-3.7c0-.1-.1-.2-.2-.2-.1 0-.2.1-.2.2v3.7z"/><path d="m110.5 122.4v-3.7c0-.1-.1-.2-.2-.2-.1 0-.2.1-.2.2v3.7z"/><path d="m113.9 122.4v-3.7c0-.1-.1-.2-.2-.2-.1 0-.2.1-.2.2v3.7z"/><path d="m117.3 122.4v-3.7c0-.1-.1-.2-.2-.2-.1 0-.2.1-.2.2v3.7z"/><path d="m120.7 122.4v-3.7c0-.1-.1-.2-.2-.2-.1 0-.2.1-.2.2v3.7z"/><path d="m124.1 122.4v-3.7c0-.1-.1-.2-.2-.2-.1 0-.2.1-.2.2v3.7z"/></g><path d="m123.3 122.5h-19.6c-1 0-1.8-.8-1.8-1.8 0-.2.1-.3.3-.3h22.7c.2 0 .3.1.3.3-.1.9-.9 1.8-1.9 1.8z" fill="#f8f6e8"/><path d="m104.3 208.4h19v22.9h-19z" fill="#783361"/><path d="m104.7 230.4h8.9c.7 0 1.2-.5 1.2-1.2v-16.1c0-.7-.5-1.2-1.2-1.2h-8.9c-.3 0-.6.3-.6.7v17.1c0 .5.3.7.6.7z" fill="#bfa6c2"/><path d="m104.2 214.3v-5.2c0-.6.5-1 1-1h17c.6 0 1 .5 1 1v1.8z" fill="#783361" opacity=".27"/><path d="m124.4 210h-21.3c-.6 0-1-.4-1-1v-3.6c0-.6.4-1 1-1h21.3c.6 0 1 .4 1 1v3.6c0 .5-.4 1-1 1z" fill="#f8f6e8"/><path d="m103.9 210.1v-3.7c0-.1-.1-.2-.2-.2-.1 0-.2.1-.2.2v3.7z" fill="#c0d5d0"/><path d="m107.3 210.1v-3.7c0-.1-.1-.2-.2-.2-.1 0-.2.1-.2.2v3.7z" fill="#c0d5d0"/><path d="m110.7 210.1v-3.7c0-.1-.1-.2-.2-.2-.1 0-.2.1-.2.2v3.7z" fill="#c0d5d0"/><path d="m114.1 210.1v-3.7c0-.1-.1-.2-.2-.2-.1 0-.2.1-.2.2v3.7z" fill="#c0d5d0"/><path d="m117.6 210.1v-3.7c0-.1-.1-.2-.2-.2-.1 0-.2.1-.2.2v3.7z" fill="#c0d5d0"/><path d="m121 210.1v-3.7c0-.1-.1-.2-.2-.2-.1 0-.2.1-.2.2v3.7z" fill="#c0d5d0"/><path d="m124.4 210.1v-3.7c0-.1-.1-.2-.2-.2-.1 0-.2.1-.2.2v3.7z" fill="#c0d5d0"/><path d="m123.6 210.2h-19.6c-1 0-1.8-.8-1.8-1.8 0-.2.1-.3.3-.3h22.7c.2 0 .3.1.3.3-.1 1-.9 1.8-1.9 1.8z" fill="#f8f6e8"/><path d="m148.5 77.3h19v22.9h-19z" fill="#f58777"/><path d="m149 98.4h8.9c.7 0 1.2-.5 1.2-1.2v-16.1c0-.7-.5-1.2-1.2-1.2h-8.9c-.3 0-.6.3-.6.7v17.1c0 .4.2.7.6.7z" fill="#f7c1b6"/><path d="m148.5 82.2v-5.2c0-.6.5-1 1-1h17c.6 0 1 .5 1 1v1.8z" fill="#f3c74a" opacity=".67"/><path d="m168.7 77.9h-21.3c-.6 0-1-.4-1-1v-3.6c0-.6.4-1 1-1h21.3c.6 0 1 .4 1 1v3.6c0 .5-.5 1-1 1z" fill="#f8f6e8"/><path d="m148.2 78.1v-3.7c0-.1-.1-.2-.2-.2-.1 0-.2.1-.2.2v3.7z" fill="#c0d5d0"/><path d="m151.6 78.1v-3.7c0-.1-.1-.2-.2-.2-.1 0-.2.1-.2.2v3.7z" fill="#c0d5d0"/><path d="m155 78.1v-3.7c0-.1-.1-.2-.2-.2-.1 0-.2.1-.2.2v3.7z" fill="#c0d5d0"/><path d="m158.4 78.1v-3.7c0-.1-.1-.2-.2-.2-.1 0-.2.1-.2.2v3.7z" fill="#c0d5d0"/><path d="m161.8 78.1v-3.7c0-.1-.1-.2-.2-.2-.1 0-.2.1-.2.2v3.7z" fill="#c0d5d0"/><path d="m165.2 78.1v-3.7c0-.1-.1-.2-.2-.2-.1 0-.2.1-.2.2v3.7z" fill="#c0d5d0"/><path d="m168.6 78.1v-3.7c0-.1-.1-.2-.2-.2-.1 0-.2.1-.2.2v3.7z" fill="#c0d5d0"/><path d="m167.8 78.1h-19.6c-1 0-1.8-.8-1.8-1.8 0-.2.1-.3.3-.3h22.7c.2 0 .3.1.3.3 0 1-.9 1.8-1.9 1.8z" fill="#f8f6e8"/><path d="m81 178.6v9.2h-22.3v-9.2c0-1.8 1.5-3.3 3.3-3.3h.3c1.9 0 3.4-1.5 3.4-3.4v-.6h8.6v.6c0 1.9 1.5 3.4 3.4 3.4 1.8 0 3.3 1.5 3.3 3.3z" fill="#f58777"/><path d="m62 175.5c1.9 0 3.4-1.5 3.4-3.4v-.6h8.6v.6c0 1.8-12 3.4-12 3.4z" fill="#f58777" opacity=".77"/><path d="m74.7 171.7h-9.5c-.6 0-1.1-.5-1.1-1.1v-2.3c0-.6.5-1.1 1.1-1.1h9.5c.6 0 1.1.5 1.1 1.1v2.3c-.1.6-.5 1.1-1.1 1.1z" fill="#f8f6e8"/><path d="m66.1 171.8v-2.8c0-.1-.1-.1-.1-.1-.1 0-.1.1-.1.1v2.9c0-.1.1-.1.2-.1z" fill="#c0d5d0"/><path d="m68.8 171.8v-2.8c0-.1-.1-.1-.1-.1-.1 0-.1.1-.1.1v2.9c0-.1.1-.1.2-.1z" fill="#c0d5d0"/><path d="m71.5 171.8v-2.8c0-.1-.1-.1-.1-.1-.1 0-.1.1-.1.1v2.9c0-.1.1-.1.2-.1z" fill="#c0d5d0"/><path d="m74.1 171.8v-2.8c0-.1-.1-.1-.1-.1-.1 0-.1.1-.1.1v2.9c.1-.1.2-.1.2-.1z" fill="#c0d5d0"/><path d="m74.3 171.9h-8.7c-.8 0-1.5-.7-1.5-1.5 0-.1.1-.2.2-.2h11.1c.1 0 .2.1.2.2.1.9-.5 1.5-1.3 1.5z" fill="#f8f6e8"/><path d="m58.6 182.8h22.4v5.1h-22.4z" fill="#f7c1b6"/><path d="m81.3 134.4v9.2h-22.3v-9.2c0-1.8 1.5-3.3 3.3-3.3h.3c1.9 0 3.4-1.5 3.4-3.4v-.7h8.6v.6c0 1.9 1.5 3.4 3.4 3.4 1.8 0 3.3 1.5 3.3 3.4z" fill="#f3c74a"/><path d="m62.3 131.2c1.9 0 3.4-1.5 3.4-3.4v-.6h8.6v.6c0 1.9-12 3.4-12 3.4z" fill="#f58777" opacity=".77"/><path d="m74.9 127.4h-9.5c-.6 0-1.1-.5-1.1-1.1v-2.3c0-.6.5-1.1 1.1-1.1h9.5c.6 0 1.1.5 1.1 1.1v2.3c0 .7-.5 1.1-1.1 1.1z" fill="#f8f6e8"/><path d="m66.3 127.6v-2.9c0-.1-.1-.1-.1-.1-.1 0-.1.1-.1.1v2.9z" fill="#c0d5d0"/><path d="m69 127.6v-2.9c0-.1-.1-.1-.1-.1-.1 0-.1.1-.1.1v2.9z" fill="#c0d5d0"/><path d="m71.7 127.6v-2.9c0-.1-.1-.1-.1-.1-.1 0-.1.1-.1.1v2.9z" fill="#c0d5d0"/><path d="m74.4 127.6v-2.9c0-.1-.1-.1-.1-.1-.1 0-.1.1-.1.1v2.9z" fill="#c0d5d0"/><path d="m74.5 127.7h-8.7c-.8 0-1.5-.7-1.5-1.5 0-.1.1-.2.2-.2h11.1c.1 0 .2.1.2.2.2.8-.5 1.5-1.3 1.5z" fill="#f8f6e8"/><path d="m58.8 138.6h22.4v5.1h-22.4z" fill="#f8eec8"/><path d="m168.8 222.9v9.2h-22.3v-9.2c0-1.8 1.5-3.3 3.3-3.3h.3c1.9 0 3.4-1.5 3.4-3.4v-.6h8.6v.6c0 1.9 1.5 3.4 3.4 3.4 1.8-.1 3.3 1.4 3.3 3.3z" fill="#c0d5d0"/><path d="m149.8 219.7c1.9 0 3.4-1.5 3.4-3.4v-.6h8.6v.6c0 1.9-12 3.4-12 3.4z" fill="#f58777" opacity=".77"/><path d="m162.4 215.9h-9.4c-.6 0-1.1-.5-1.1-1.1v-2.3c0-.6.5-1.1 1.1-1.1h9.5c.6 0 1.1.5 1.1 1.1v2.3c-.1.7-.6 1.1-1.2 1.1z" fill="#f8f6e8"/><path d="m153.8 216.1v-2.9c0-.1-.1-.1-.1-.1-.1 0-.1.1-.1.1v2.9z" fill="#c0d5d0"/><path d="m156.5 216.1v-2.9c0-.1-.1-.1-.1-.1-.1 0-.1.1-.1.1v2.9z" fill="#c0d5d0"/><path d="m159.2 216.1v-2.9c0-.1-.1-.1-.1-.1-.1 0-.1.1-.1.1v2.9z" fill="#c0d5d0"/><path d="m161.9 216.1v-2.9c0-.1-.1-.1-.1-.1-.1 0-.1.1-.1.1v2.9z" fill="#c0d5d0"/><path d="m162 216.2h-8.7c-.8 0-1.5-.7-1.5-1.5 0-.1.1-.2.2-.2h11.1c.1 0 .2.1.2.2.2.8-.5 1.5-1.3 1.5z" fill="#f8f6e8"/><path d="m146.3 227.1h22.4v5.1h-22.4z" fill="#6a9a9b"/></svg>