<svg enable-background="new 0 0 204 336" viewBox="0 0 204 336" xmlns="http://www.w3.org/2000/svg"><path d="m191 102.8v197.9c0 14.5-11.8 26.3-26.3 26.3h-123.4c-14.5 0-26.3-11.8-26.3-26.3v-197.9c0-14.5 11.8-26.3 26.3-26.3h2c14.8 0 26.7-12 26.7-26.7v-4.8h68v4.8c0 14.7 11.9 26.7 26.7 26.7 14.5 0 26.3 11.8 26.3 26.3z" fill="#f58777"/><path d="m41.3 78c14.8 0 26.7-12 26.7-26.7v-4.8h68v4.8c0 14.7-94.7 26.7-94.7 26.7z" fill="#f58777" opacity=".77"/><path d="m145.1 48.3h-82.6c-2.4 0-4.4-2-4.4-4.4v-26c0-2.4 2-4.4 4.4-4.4h82.6c2.4 0 4.4 2 4.4 4.4v26c0 2.4-2 4.4-4.4 4.4z" fill="#f8f6e8"/><g fill="#c0d5d0"><path d="m73.1 49.4v-22.7c0-.6-.5-1.2-1.2-1.2-.6 0-1.2.5-1.2 1.2v22.8c1.1-.1 1.7-.1 2.4-.1z"/><path d="m94.4 49.4v-22.7c0-.6-.5-1.2-1.2-1.2-.6 0-1.2.5-1.2 1.2v22.8c1-.1 1.7-.1 2.4-.1z"/><path d="m115.6 49.4v-22.7c0-.6-.5-1.2-1.2-1.2-.6 0-1.2.5-1.2 1.2v22.8c1.1-.1 1.7-.1 2.4-.1z"/><path d="m136.9 49.4v-22.7c0-.6-.5-1.2-1.2-1.2-.6 0-1.2.5-1.2 1.2v22.8c1-.1 1.7-.1 2.4-.1z"/></g><path d="m145.1 49.9h-82.6c-2.4 0-4.4-2-4.4-4.4v-8.2c0-.4.3-.7.7-.7h89.9c.4 0 .7.3.7.7v8.2c.1 2.5-1.9 4.4-4.3 4.4z" fill="#f8f6e8"/><path d="m14.1 136.1h177v111h-177z" fill="#f7c1b6"/></svg>