<svg enable-background="new 0 0 136 265" viewBox="0 0 136 265" xmlns="http://www.w3.org/2000/svg"><path d="m104.6 252.9h-65.3c-6.2 0-11.3-5.1-11.3-11.3v-194.1c0-3.5 2.8-6.3 6.3-6.3h75.3c3.5 0 6.3 2.8 6.3 6.3v194.1c0 6.2-5 11.3-11.3 11.3z" fill="#f3c74a"/><path d="m112.5 202h-51c-9.1 0-16.6-6.9-16.6-15.4v-84.3c0-8.5 7.4-15.4 16.6-15.4h51c2.2 0 4 1.9 4 4.2v106.8c0 2.2-1.8 4.1-4 4.1z" fill="#f8eec8"/><path d="m27.8 77.9v-32.2c0-3.5 2.1-6.3 4.7-6.3h78.5c2.6 0 4.7 2.8 4.7 6.3v11.4z" fill="#f3c74a" opacity=".67"/><path d="m121.3 50.9h-98.8c-2.4 0-4.4-2-4.4-4.4v-26c0-2.4 2-4.4 4.4-4.4h98.8c2.4 0 4.4 2 4.4 4.4v26c0 2.5-1.9 4.4-4.4 4.4z" fill="#f8f6e8"/><g fill="#c0d5d0"><path d="m29.2 52.1v-22.8c0-.6-.5-1.2-1.2-1.2-.6 0-1.2.5-1.2 1.2v22.8z"/><path d="m50.4 52.1v-22.8c0-.6-.5-1.2-1.2-1.2-.6 0-1.2.5-1.2 1.2v22.8z"/><path d="m71.7 52.1v-22.8c0-.6-.5-1.2-1.2-1.2-.6 0-1.2.5-1.2 1.2v22.8z"/><path d="m114.2 52.1v-22.8c0-.6-.5-1.2-1.2-1.2-.6 0-1.2.5-1.2 1.2v22.8z"/><path d="m92.9 52.1v-22.8c0-.6-.5-1.2-1.2-1.2-.6 0-1.2.5-1.2 1.2v22.8z"/></g><path d="m121.3 52.6h-98.8c-2.4 0-4.4-2-4.4-4.4v-8.2c0-.4.3-.7.7-.7h106.2c.4 0 .7.3.7.7v8.2c0 2.4-1.9 4.4-4.4 4.4z" fill="#f8f6e8"/></svg>