<svg enable-background="new 0 0 100 392" viewBox="0 0 100 392" xmlns="http://www.w3.org/2000/svg"><path d="m53.6 301.3c-14.9 0-27-12.1-27-27v-225.3c0-14.8 12.1-27 27-27 14.8 0 27 12.1 27 27v225.3c0 14.9-12.1 27-27 27z" fill="#f8f6e8"/><path d="m53.6 355c5.9 0 10.7-4.8 10.7-10.7v-44.3c0-5.9-4.8-10.7-10.7-10.7-5.9 0-10.7 4.8-10.7 10.7v44.2c0 5.9 4.8 10.8 10.7 10.8z" fill="#f8f6e8"/><path d="m53.6 22.3c-2.7 0-5.3.4-7.7 1.1 12.5 2.3 22 13.4 22 26.5v225.3c0 12.2-8.2 22.5-19.3 25.9 1.6.3 3.3.5 5 .5 14.8 0 27-12.1 27-27v-225.4c0-14.8-12.1-26.9-27-26.9z" fill="#f8eec8" opacity=".65"/><path d="m53.6 355c5.9 0 10.7-4.8 10.7-10.7v-30.9h-21.4v30.9c0 5.8 4.8 10.7 10.7 10.7z" fill="#c0d5d0"/><path d="m60.4 313.1v27.4c0 5.9-4.8 10.7-10.7 10.7-1.6 0-3.1-.4-4.4-1 1.9 2.7 5.1 4.5 8.7 4.5 5.9 0 10.7-4.8 10.7-10.7v-30.9z" fill="#c0d5d0" opacity=".59"/><g fill="#f3c74a"><path d="m55.3 313.4h-3.3v-265c0-.9.8-1.7 1.7-1.7.9 0 1.7.8 1.7 1.7v265z"/><g opacity=".57"><path d="m72.3 57h-34.6c-.7 0-1.3-.6-1.3-1.3 0-.7.6-1.3 1.3-1.3h34.7c.7 0 1.3.6 1.3 1.3 0 .7-.6 1.3-1.4 1.3z"/><path d="m72.3 86.3h-34.6c-.7 0-1.3-.6-1.3-1.3 0-.7.6-1.3 1.3-1.3h34.7c.7 0 1.3.6 1.3 1.3 0 .7-.6 1.3-1.4 1.3z"/><path d="m71.7 115.6h-34.7c-.7 0-1.3-.6-1.3-1.3 0-.7.6-1.3 1.3-1.3h34.7c.7 0 1.3.6 1.3 1.3 0 .7-.6 1.3-1.3 1.3z"/><path d="m71.7 144.8h-34.7c-.7 0-1.3-.6-1.3-1.3 0-.7.6-1.3 1.3-1.3h34.7c.7 0 1.3.6 1.3 1.3 0 .7-.6 1.3-1.3 1.3z"/><path d="m71.7 174.1h-34.7c-.7 0-1.3-.6-1.3-1.3 0-.7.6-1.3 1.3-1.3h34.7c.7 0 1.3.6 1.3 1.3 0 .7-.6 1.3-1.3 1.3z"/><path d="m71.7 203.4h-34.7c-.7 0-1.3-.6-1.3-1.3 0-.7.6-1.3 1.3-1.3h34.7c.7 0 1.3.6 1.3 1.3 0 .7-.6 1.3-1.3 1.3z"/><path d="m71.7 232.7h-34.7c-.7 0-1.3-.6-1.3-1.3 0-.7.6-1.3 1.3-1.3h34.7c.7 0 1.3.6 1.3 1.3 0 .7-.6 1.3-1.3 1.3z"/></g><g opacity=".57"><path d="m63.3 72h-17.6c-.7 0-1.3-.6-1.3-1.3 0-.7.6-1.3 1.3-1.3h17.6c.7 0 1.3.6 1.3 1.3.1.7-.5 1.3-1.3 1.3z"/><path d="m63.3 101.3h-17.6c-.7 0-1.3-.6-1.3-1.3 0-.7.6-1.3 1.3-1.3h17.6c.7 0 1.3.6 1.3 1.3.1.7-.5 1.3-1.3 1.3z"/><path d="m63 130.6h-17.7c-.7 0-1.3-.6-1.3-1.3 0-.7.6-1.3 1.3-1.3h17.7c.7 0 1.3.6 1.3 1.3 0 .7-.6 1.3-1.3 1.3z"/><path d="m63 159.8h-17.7c-.7 0-1.3-.6-1.3-1.3 0-.7.6-1.3 1.3-1.3h17.7c.7 0 1.3.6 1.3 1.3 0 .7-.6 1.3-1.3 1.3z"/><path d="m63 189.1h-17.7c-.7 0-1.3-.6-1.3-1.3 0-.7.6-1.3 1.3-1.3h17.7c.7 0 1.3.6 1.3 1.3 0 .7-.6 1.3-1.3 1.3z"/><path d="m63 218.4h-17.7c-.7 0-1.3-.6-1.3-1.3 0-.7.6-1.3 1.3-1.3h17.7c.7 0 1.3.6 1.3 1.3 0 .7-.6 1.3-1.3 1.3z"/><path d="m63 247.7h-17.7c-.7 0-1.3-.6-1.3-1.3 0-.7.6-1.3 1.3-1.3h17.7c.7 0 1.3.6 1.3 1.3 0 .7-.6 1.3-1.3 1.3z"/></g></g><path d="m55.3 313.8h-3.3v-176.4c0-.9.8-1.7 1.7-1.7.9 0 1.7.8 1.7 1.7v176.4z" fill="#ea4143"/><path d="m60.2 298.3h4.3v15h-4.3z" fill="#f8eec8"/></svg>