<svg enable-background="new 0 0 174.239 174.239" height="512" viewBox="0 0 174.239 174.239" width="512" xmlns="http://www.w3.org/2000/svg"><path d="m146.537 1.047c-1.396-1.396-3.681-1.396-5.077 0l-51.802 51.802c-1.396 1.396-3.681 1.396-5.077 0l-51.801-51.802c-1.396-1.396-3.681-1.396-5.077 0l-26.656 26.655c-1.396 1.396-1.396 3.681 0 5.077l51.802 51.802c1.396 1.396 1.396 3.681 0 5.077l-51.802 51.802c-1.396 1.396-1.396 3.681 0 5.077l26.655 26.655c1.396 1.396 3.681 1.396 5.077 0l51.802-51.802c1.396-1.396 3.681-1.396 5.077 0l51.801 51.801c1.396 1.396 3.681 1.396 5.077 0l26.655-26.655c1.396-1.396 1.396-3.681 0-5.077l-51.801-51.801c-1.396-1.396-1.396-3.681 0-5.077l51.801-51.801c1.396-1.396 1.396-3.681 0-5.077z" fill="#d80027"/></svg>